<?xml version="1.0" encoding="UTF-8" standalone="no"?>
<!DOCTYPE svg PUBLIC "-//W3C//DTD SVG 1.1//EN"
 "http://www.w3.org/Graphics/SVG/1.1/DTD/svg11.dtd">
<!-- Generated by graphviz version 14.0.2 (0)
 -->
<!-- Title: spec_kit_user_journey Pages: 1 -->
<svg width="848pt" height="1613pt"
 viewBox="0.00 0.00 848.00 1613.00" xmlns="http://www.w3.org/2000/svg" xmlns:xlink="http://www.w3.org/1999/xlink">
<g id="graph0" class="graph" transform="scale(1 1) rotate(0) translate(4 1609.38)">
<title>spec_kit_user_journey</title>
<polygon fill="white" stroke="none" points="-4,4 -4,-1609.38 844.12,-1609.38 844.12,4 -4,4"/>
<text xml:space="preserve" text-anchor="middle" x="420.06" y="-1588.08" font-family="Arial" font-size="14.00">Spec&#45;Kit User Journey</text>
<text xml:space="preserve" text-anchor="middle" x="420.06" y="-1573.08" font-family="Arial" font-size="14.00">High&#45;Level Command Flow</text>
<g id="clust1" class="cluster">
<title>cluster_legend</title>
<polygon fill="#fafafa" stroke="black" points="670.12,-1156.88 670.12,-1559.38 832.12,-1559.38 832.12,-1156.88 670.12,-1156.88"/>
<text xml:space="preserve" text-anchor="middle" x="751.12" y="-1542.08" font-family="Arial" font-size="14.00">Legend</text>
</g>
<!-- user -->
<g id="node1" class="node">
<title>user</title>
<ellipse fill="#e3f2fd" stroke="black" cx="546.12" cy="-1510.38" rx="114.23" ry="18"/>
<text xml:space="preserve" text-anchor="middle" x="546.12" y="-1504.58" font-family="Arial" font-size="14.00">/speckit.new &lt;description&gt;</text>
</g>
<!-- new_spec -->
<g id="node2" class="node">
<title>new_spec</title>
<polygon fill="#ffe082" stroke="black" points="567.75,-1455.38 426.5,-1455.38 426.5,-1387.38 567.75,-1387.38 567.75,-1455.38"/>
<text xml:space="preserve" text-anchor="middle" x="497.12" y="-1438.08" font-family="Arial" font-size="14.00">Create SPEC</text>
<text xml:space="preserve" text-anchor="middle" x="497.12" y="-1423.08" font-family="Arial" font-size="14.00">• Generate SPEC&#45;ID</text>
<text xml:space="preserve" text-anchor="middle" x="497.12" y="-1408.08" font-family="Arial" font-size="14.00">• Create directory</text>
<text xml:space="preserve" text-anchor="middle" x="497.12" y="-1393.08" font-family="Arial" font-size="14.00">• Apply templates</text>
</g>
<!-- user&#45;&gt;new_spec -->
<g id="edge1" class="edge">
<title>user&#45;&gt;new_spec</title>
<path fill="none" stroke="black" d="M536.44,-1492.19C532.1,-1484.47 526.75,-1474.98 521.42,-1465.52"/>
<polygon fill="black" stroke="black" points="524.61,-1464.05 516.66,-1457.06 518.51,-1467.49 524.61,-1464.05"/>
</g>
<!-- status -->
<g id="node15" class="node">
<title>status</title>
<ellipse fill="#b2dfdb" stroke="black" cx="468.12" cy="-58.69" rx="87.68" ry="58.69"/>
<text xml:space="preserve" text-anchor="middle" x="468.12" y="-82.89" font-family="Arial" font-size="14.00">/speckit.status</text>
<text xml:space="preserve" text-anchor="middle" x="468.12" y="-67.89" font-family="Arial" font-size="14.00">Native Dashboard</text>
<text xml:space="preserve" text-anchor="middle" x="468.12" y="-52.89" font-family="Arial" font-size="14.00">• Stage progress</text>
<text xml:space="preserve" text-anchor="middle" x="468.12" y="-37.89" font-family="Arial" font-size="14.00">• Evidence health</text>
<text xml:space="preserve" text-anchor="middle" x="468.12" y="-22.89" font-family="Arial" font-size="14.00">• Warnings</text>
</g>
<!-- user&#45;&gt;status -->
<g id="edge17" class="edge">
<title>user&#45;&gt;status</title>
<path fill="none" stroke="black" stroke-dasharray="5,2" d="M563.05,-1492.37C577.56,-1475.92 596.12,-1449.56 596.12,-1422.38 596.12,-1422.38 596.12,-1422.38 596.12,-209.63 596.12,-168.8 568.33,-133.47 538.65,-107.37"/>
<polygon fill="black" stroke="black" points="541.3,-105.03 531.41,-101.24 536.78,-110.37 541.3,-105.03"/>
<text xml:space="preserve" text-anchor="middle" x="619" y="-862.58" font-family="Arial" font-size="14.00">Monitor</text>
</g>
<!-- quality -->
<g id="node3" class="node">
<title>quality</title>
<polygon fill="#fff9c4" stroke="black" points="361.12,-1336.38 228.13,-1298.38 361.12,-1260.38 494.12,-1298.38 361.12,-1336.38"/>
<text xml:space="preserve" text-anchor="middle" x="361.12" y="-1300.08" font-family="Arial" font-size="14.00">Quality Commands</text>
<text xml:space="preserve" text-anchor="middle" x="361.12" y="-1285.08" font-family="Arial" font-size="14.00">(Optional)</text>
</g>
<!-- new_spec&#45;&gt;quality -->
<g id="edge2" class="edge">
<title>new_spec&#45;&gt;quality</title>
<path fill="none" stroke="black" d="M459.6,-1387C441.47,-1370.86 419.68,-1351.48 401.22,-1335.05"/>
<polygon fill="black" stroke="black" points="403.92,-1332.77 394.13,-1328.74 399.27,-1338 403.92,-1332.77"/>
<text xml:space="preserve" text-anchor="middle" x="462.77" y="-1356.08" font-family="Arial" font-size="14.00">Optional</text>
</g>
<!-- auto -->
<g id="node7" class="node">
<title>auto</title>
<polygon fill="#ff8a65" stroke="black" points="545.62,-1119.38 310.62,-1119.38 310.62,-1036.38 545.62,-1036.38 545.62,-1119.38"/>
<text xml:space="preserve" text-anchor="middle" x="428.12" y="-1102.08" font-family="Arial" font-size="14.00">/speckit.auto</text>
<text xml:space="preserve" text-anchor="middle" x="428.12" y="-1087.08" font-family="Arial" font-size="14.00">• Full 6&#45;stage pipeline</text>
<text xml:space="preserve" text-anchor="middle" x="428.12" y="-1072.08" font-family="Arial" font-size="14.00">• ACE&#45;enhanced</text>
<text xml:space="preserve" text-anchor="middle" x="428.12" y="-1057.08" font-family="Arial" font-size="14.00">• Optimized models (flashlite+haiku)</text>
<text xml:space="preserve" text-anchor="middle" x="428.12" y="-1042.08" font-family="Arial" font-size="14.00">• ~75 min, ~$6.50</text>
</g>
<!-- new_spec&#45;&gt;auto -->
<g id="edge3" class="edge">
<title>new_spec&#45;&gt;auto</title>
<path fill="none" stroke="black" d="M511.9,-1387.16C532.71,-1335.12 564.19,-1232.48 527.12,-1156.38 521.86,-1145.56 514.26,-1135.81 505.6,-1127.17"/>
<polygon fill="black" stroke="black" points="508.19,-1124.8 498.48,-1120.57 503.43,-1129.93 508.19,-1124.8"/>
<text xml:space="preserve" text-anchor="middle" x="561.9" y="-1229.08" font-family="Arial" font-size="14.00">Direct</text>
</g>
<!-- clarify -->
<g id="node4" class="node">
<title>clarify</title>
<polygon fill="#c5e1a5" stroke="black" points="320.38,-1209.38 167.88,-1209.38 167.88,-1156.38 320.38,-1156.38 320.38,-1209.38"/>
<text xml:space="preserve" text-anchor="middle" x="244.12" y="-1192.08" font-family="Arial" font-size="14.00">/speckit.clarify</text>
<text xml:space="preserve" text-anchor="middle" x="244.12" y="-1177.08" font-family="Arial" font-size="14.00">• Identify ambiguities</text>
<text xml:space="preserve" text-anchor="middle" x="244.12" y="-1162.08" font-family="Arial" font-size="14.00">• Suggest clarifications</text>
</g>
<!-- quality&#45;&gt;clarify -->
<g id="edge4" class="edge">
<title>quality&#45;&gt;clarify</title>
<path fill="none" stroke="black" d="M331.3,-1268.45C315.24,-1252.87 295.35,-1233.57 278.63,-1217.35"/>
<polygon fill="black" stroke="black" points="281.4,-1215.17 271.79,-1210.72 276.53,-1220.19 281.4,-1215.17"/>
<text xml:space="preserve" text-anchor="middle" x="336.75" y="-1229.08" font-family="Arial" font-size="14.00">Ambiguous</text>
</g>
<!-- analyze -->
<g id="node5" class="node">
<title>analyze</title>
<polygon fill="#c5e1a5" stroke="black" points="518.25,-1209.38 338,-1209.38 338,-1156.38 518.25,-1156.38 518.25,-1209.38"/>
<text xml:space="preserve" text-anchor="middle" x="428.12" y="-1192.08" font-family="Arial" font-size="14.00">/speckit.analyze</text>
<text xml:space="preserve" text-anchor="middle" x="428.12" y="-1177.08" font-family="Arial" font-size="14.00">• Cross&#45;artifact consistency</text>
<text xml:space="preserve" text-anchor="middle" x="428.12" y="-1162.08" font-family="Arial" font-size="14.00">• Auto&#45;fix issues</text>
</g>
<!-- quality&#45;&gt;analyze -->
<g id="edge5" class="edge">
<title>quality&#45;&gt;analyze</title>
<path fill="none" stroke="black" d="M379.97,-1265.46C388.39,-1251.18 398.36,-1234.3 407.04,-1219.6"/>
<polygon fill="black" stroke="black" points="409.97,-1221.53 412.04,-1211.14 403.94,-1217.97 409.97,-1221.53"/>
<text xml:space="preserve" text-anchor="middle" x="436.63" y="-1229.08" font-family="Arial" font-size="14.00">Inconsistent</text>
</g>
<!-- checklist -->
<g id="node6" class="node">
<title>checklist</title>
<polygon fill="#c5e1a5" stroke="black" points="150.25,-1209.38 0,-1209.38 0,-1156.38 150.25,-1156.38 150.25,-1209.38"/>
<text xml:space="preserve" text-anchor="middle" x="75.12" y="-1192.08" font-family="Arial" font-size="14.00">/speckit.checklist</text>
<text xml:space="preserve" text-anchor="middle" x="75.12" y="-1177.08" font-family="Arial" font-size="14.00">• Requirement scoring</text>
<text xml:space="preserve" text-anchor="middle" x="75.12" y="-1162.08" font-family="Arial" font-size="14.00">• Quality metrics</text>
</g>
<!-- quality&#45;&gt;checklist -->
<g id="edge6" class="edge">
<title>quality&#45;&gt;checklist</title>
<path fill="none" stroke="black" d="M299.96,-1277.52C270.52,-1267.6 234.87,-1255.02 203.38,-1242.38 182.29,-1233.92 159.64,-1223.9 139.33,-1214.57"/>
<polygon fill="black" stroke="black" points="140.85,-1211.42 130.31,-1210.4 137.92,-1217.78 140.85,-1211.42"/>
<text xml:space="preserve" text-anchor="middle" x="245.75" y="-1229.08" font-family="Arial" font-size="14.00">Quality Check</text>
</g>
<!-- clarify&#45;&gt;auto -->
<g id="edge7" class="edge">
<title>clarify&#45;&gt;auto</title>
<path fill="none" stroke="black" d="M290.56,-1155.89C307.16,-1146.59 326.41,-1135.82 345.16,-1125.32"/>
<polygon fill="black" stroke="black" points="346.87,-1128.38 353.88,-1120.44 343.45,-1122.27 346.87,-1128.38"/>
</g>
<!-- analyze&#45;&gt;auto -->
<g id="edge8" class="edge">
<title>analyze&#45;&gt;auto</title>
<path fill="none" stroke="black" d="M428.12,-1155.89C428.12,-1148.26 428.12,-1139.64 428.12,-1131"/>
<polygon fill="black" stroke="black" points="431.63,-1131.21 428.13,-1121.21 424.63,-1131.21 431.63,-1131.21"/>
</g>
<!-- checklist&#45;&gt;auto -->
<g id="edge9" class="edge">
<title>checklist&#45;&gt;auto</title>
<path fill="none" stroke="black" d="M150.67,-1158.89C153.52,-1158.04 156.35,-1157.2 159.12,-1156.38 204.76,-1142.88 254.85,-1128.37 299.3,-1115.59"/>
<polygon fill="black" stroke="black" points="300.07,-1119.01 308.72,-1112.89 298.14,-1112.28 300.07,-1119.01"/>
</g>
<!-- plan -->
<g id="node8" class="node">
<title>plan</title>
<polygon fill="#90caf9" stroke="black" points="566.88,-999.38 291.38,-999.38 291.38,-901.38 566.88,-901.38 566.88,-999.38"/>
<text xml:space="preserve" text-anchor="middle" x="429.12" y="-982.08" font-family="Arial" font-size="14.00">Stage 1: Plan</text>
<text xml:space="preserve" text-anchor="middle" x="429.12" y="-967.08" font-family="Arial" font-size="14.00">• Quality: Clarify (ambiguities)</text>
<text xml:space="preserve" text-anchor="middle" x="429.12" y="-952.08" font-family="Arial" font-size="14.00">• Guardrail validation</text>
<text xml:space="preserve" text-anchor="middle" x="429.12" y="-937.08" font-family="Arial" font-size="14.00">• ACE + 3 agents (gemini+claude+gpt_pro)</text>
<text xml:space="preserve" text-anchor="middle" x="429.12" y="-922.08" font-family="Arial" font-size="14.00">• Consensus check</text>
<text xml:space="preserve" text-anchor="middle" x="429.12" y="-907.08" font-family="Arial" font-size="14.00">~18 min, ~$1.30</text>
</g>
<!-- auto&#45;&gt;plan -->
<g id="edge10" class="edge">
<title>auto&#45;&gt;plan</title>
<path fill="none" stroke="black" d="M428.45,-1036.13C428.51,-1028.16 428.58,-1019.65 428.65,-1011.21"/>
<polygon fill="black" stroke="black" points="432.15,-1011.33 428.73,-1001.31 425.15,-1011.28 432.15,-1011.33"/>
</g>
<!-- tasks -->
<g id="node9" class="node">
<title>tasks</title>
<polygon fill="#90caf9" stroke="black" points="515.88,-835.38 240.38,-835.38 240.38,-737.38 515.88,-737.38 515.88,-835.38"/>
<text xml:space="preserve" text-anchor="middle" x="378.12" y="-818.08" font-family="Arial" font-size="14.00">Stage 2: Tasks</text>
<text xml:space="preserve" text-anchor="middle" x="378.12" y="-803.08" font-family="Arial" font-size="14.00">• Quality: Checklist (claude+code only)</text>
<text xml:space="preserve" text-anchor="middle" x="378.12" y="-788.08" font-family="Arial" font-size="14.00">• Guardrail validation</text>
<text xml:space="preserve" text-anchor="middle" x="378.12" y="-773.08" font-family="Arial" font-size="14.00">• ACE + 3 agents (gemini+claude+gpt_pro)</text>
<text xml:space="preserve" text-anchor="middle" x="378.12" y="-758.08" font-family="Arial" font-size="14.00">• Consensus check</text>
<text xml:space="preserve" text-anchor="middle" x="378.12" y="-743.08" font-family="Arial" font-size="14.00">~16 min, ~$1.35</text>
</g>
<!-- plan&#45;&gt;tasks -->
<g id="edge11" class="edge">
<title>plan&#45;&gt;tasks</title>
<path fill="none" stroke="black" d="M424.9,-901.24C422.67,-885.69 419.28,-868.56 414.12,-853.38 413.28,-850.88 412.34,-848.36 411.32,-845.84"/>
<polygon fill="black" stroke="black" points="414.64,-844.68 407.42,-836.93 408.23,-847.49 414.64,-844.68"/>
<text xml:space="preserve" text-anchor="middle" x="464.31" y="-862.95" font-family="Arial" font-size="14.00">✓ Consensus</text>
</g>
<!-- plan&#45;&gt;tasks -->
<g id="edge24" class="edge">
<title>plan&#45;&gt;tasks</title>
<path fill="none" stroke="orange" stroke-dasharray="5,2" d="M328.03,-901.35C322.67,-895.93 317.93,-889.95 314.12,-883.38 306.77,-870.67 308.87,-857.37 315.62,-844.85"/>
<polygon fill="orange" stroke="orange" points="318.37,-847.05 320.8,-836.74 312.47,-843.29 318.37,-847.05"/>
<text xml:space="preserve" text-anchor="middle" x="362.12" y="-870.08" font-family="Arial" font-size="14.00">Degraded</text>
<text xml:space="preserve" text-anchor="middle" x="362.12" y="-855.08" font-family="Arial" font-size="14.00">(2/3 consensus)</text>
</g>
<!-- plan&#45;&gt;status -->
<g id="edge18" class="edge">
<title>plan&#45;&gt;status</title>
<path fill="none" stroke="black" stroke-dasharray="1,5" d="M496.38,-900.89C501.79,-895.37 506.82,-889.51 511.12,-883.38 537.05,-846.45 544.12,-832.5 544.12,-787.38 544.12,-787.38 544.12,-787.38 544.12,-209.63 544.12,-178.19 530.66,-146.65 515.07,-120.67"/>
<polygon fill="black" stroke="black" points="518.09,-118.9 509.82,-112.28 512.16,-122.62 518.09,-118.9"/>
</g>
<!-- implement -->
<g id="node10" class="node">
<title>implement</title>
<polygon fill="#90caf9" stroke="black" points="473.25,-685.63 185,-685.63 185,-587.63 473.25,-587.63 473.25,-685.63"/>
<text xml:space="preserve" text-anchor="middle" x="329.12" y="-668.33" font-family="Arial" font-size="14.00">Stage 3: Implement</text>
<text xml:space="preserve" text-anchor="middle" x="329.12" y="-653.33" font-family="Arial" font-size="14.00">• Quality: Analyze (consistency)</text>
<text xml:space="preserve" text-anchor="middle" x="329.12" y="-638.33" font-family="Arial" font-size="14.00">• Guardrail validation</text>
<text xml:space="preserve" text-anchor="middle" x="329.12" y="-623.33" font-family="Arial" font-size="14.00">• ACE + 4 agents (pro+opus+codex+gpt_pro)</text>
<text xml:space="preserve" text-anchor="middle" x="329.12" y="-608.33" font-family="Arial" font-size="14.00">• Consensus check</text>
<text xml:space="preserve" text-anchor="middle" x="329.12" y="-593.33" font-family="Arial" font-size="14.00">~23 min, ~$2.80</text>
</g>
<!-- tasks&#45;&gt;implement -->
<g id="edge12" class="edge">
<title>tasks&#45;&gt;implement</title>
<path fill="none" stroke="black" d="M377.08,-737.05C375.83,-725.87 373.69,-714.16 370.12,-703.63 369.27,-701.1 368.3,-698.56 367.23,-696.04"/>
<polygon fill="black" stroke="black" points="370.48,-694.7 363.06,-687.14 364.14,-697.68 370.48,-694.7"/>
<text xml:space="preserve" text-anchor="middle" x="416.94" y="-706.08" font-family="Arial" font-size="14.00">✓ Consensus</text>
</g>
<!-- tasks&#45;&gt;implement -->
<g id="edge25" class="edge">
<title>tasks&#45;&gt;implement</title>
<path fill="none" stroke="orange" stroke-dasharray="5,2" d="M317.32,-736.91C313.17,-731.42 309.57,-725.56 306.88,-719.38 303.83,-712.4 302.92,-704.89 303.42,-697.37"/>
<polygon fill="orange" stroke="orange" points="306.88,-697.9 304.92,-687.48 299.96,-696.84 306.88,-697.9"/>
<text xml:space="preserve" text-anchor="middle" x="336.5" y="-705.7" font-family="Arial" font-size="14.00">Degraded</text>
</g>
<!-- tasks&#45;&gt;status -->
<g id="edge19" class="edge">
<title>tasks&#45;&gt;status</title>
<path fill="none" stroke="black" stroke-dasharray="1,5" d="M450.35,-737.12C479.39,-711.61 506.12,-677.34 506.12,-637.63 506.12,-637.63 506.12,-637.63 506.12,-209.63 506.12,-181.9 499.94,-152.15 492.57,-126.52"/>
<polygon fill="black" stroke="black" points="496.01,-125.82 489.78,-117.25 489.31,-127.84 496.01,-125.82"/>
</g>
<!-- validate -->
<g id="node11" class="node">
<title>validate</title>
<polygon fill="#90caf9" stroke="black" points="330.88,-535.88 199.38,-535.88 199.38,-452.88 330.88,-452.88 330.88,-535.88"/>
<text xml:space="preserve" text-anchor="middle" x="265.12" y="-518.58" font-family="Arial" font-size="14.00">Stage 4: Validate</text>
<text xml:space="preserve" text-anchor="middle" x="265.12" y="-503.58" font-family="Arial" font-size="14.00">• Test strategy</text>
<text xml:space="preserve" text-anchor="middle" x="265.12" y="-488.58" font-family="Arial" font-size="14.00">• Validation plan</text>
<text xml:space="preserve" text-anchor="middle" x="265.12" y="-473.58" font-family="Arial" font-size="14.00">• Consensus check</text>
<text xml:space="preserve" text-anchor="middle" x="265.12" y="-458.58" font-family="Arial" font-size="14.00">~10 min, ~$1</text>
</g>
<!-- implement&#45;&gt;validate -->
<g id="edge13" class="edge">
<title>implement&#45;&gt;validate</title>
<path fill="none" stroke="black" d="M307.1,-587.36C301.11,-574.23 294.6,-559.97 288.53,-546.68"/>
<polygon fill="black" stroke="black" points="291.75,-545.29 284.41,-537.64 285.38,-548.19 291.75,-545.29"/>
<text xml:space="preserve" text-anchor="middle" x="339.88" y="-556.33" font-family="Arial" font-size="14.00">✓ Consensus</text>
</g>
<!-- implement&#45;&gt;status -->
<g id="edge20" class="edge">
<title>implement&#45;&gt;status</title>
<path fill="none" stroke="black" stroke-dasharray="1,5" d="M413.59,-587.29C442.69,-564 468.12,-532.92 468.12,-495.38 468.12,-495.38 468.12,-495.38 468.12,-209.63 468.12,-183.33 468.12,-154.44 468.12,-129.09"/>
<polygon fill="black" stroke="black" points="471.63,-129.23 468.13,-119.23 464.63,-129.23 471.63,-129.23"/>
</g>
<!-- audit -->
<g id="node12" class="node">
<title>audit</title>
<polygon fill="#90caf9" stroke="black" points="412.5,-401.13 269.75,-401.13 269.75,-318.13 412.5,-318.13 412.5,-401.13"/>
<text xml:space="preserve" text-anchor="middle" x="341.12" y="-383.83" font-family="Arial" font-size="14.00">Stage 5: Audit</text>
<text xml:space="preserve" text-anchor="middle" x="341.12" y="-368.83" font-family="Arial" font-size="14.00">• Compliance checks</text>
<text xml:space="preserve" text-anchor="middle" x="341.12" y="-353.83" font-family="Arial" font-size="14.00">• Security review</text>
<text xml:space="preserve" text-anchor="middle" x="341.12" y="-338.83" font-family="Arial" font-size="14.00">• Consensus check</text>
<text xml:space="preserve" text-anchor="middle" x="341.12" y="-323.83" font-family="Arial" font-size="14.00">~10 min, ~$1</text>
</g>
<!-- validate&#45;&gt;audit -->
<g id="edge14" class="edge">
<title>validate&#45;&gt;audit</title>
<path fill="none" stroke="black" d="M288.55,-452.47C296.06,-439.35 304.46,-424.67 312.31,-410.95"/>
<polygon fill="black" stroke="black" points="315.23,-412.91 317.16,-402.49 309.15,-409.43 315.23,-412.91"/>
<text xml:space="preserve" text-anchor="middle" x="348.15" y="-421.58" font-family="Arial" font-size="14.00">✓ Consensus</text>
</g>
<!-- artifacts -->
<g id="node14" class="node">
<title>artifacts</title>
<polygon fill="#c8e6c9" stroke="black" points="295.88,-107.69 292.88,-111.69 271.88,-111.69 268.88,-107.69 116.38,-107.69 116.38,-9.69 295.88,-9.69 295.88,-107.69"/>
<text xml:space="preserve" text-anchor="middle" x="206.12" y="-90.39" font-family="Arial" font-size="14.00">Artifacts Created</text>
<text xml:space="preserve" text-anchor="middle" x="206.12" y="-75.39" font-family="Arial" font-size="14.00">• docs/SPEC&#45;&lt;ID&gt;&#45;&lt;slug&gt;/</text>
<text xml:space="preserve" text-anchor="middle" x="206.12" y="-60.39" font-family="Arial" font-size="14.00"> &#160;&#45; spec.md, PRD.md</text>
<text xml:space="preserve" text-anchor="middle" x="206.12" y="-45.39" font-family="Arial" font-size="14.00"> &#160;&#45; plan.md, tasks.md</text>
<text xml:space="preserve" text-anchor="middle" x="206.12" y="-30.39" font-family="Arial" font-size="14.00">• SPEC.md updated</text>
<text xml:space="preserve" text-anchor="middle" x="206.12" y="-15.39" font-family="Arial" font-size="14.00">• Evidence telemetry</text>
</g>
<!-- validate&#45;&gt;artifacts -->
<g id="edge26" class="edge">
<title>validate&#45;&gt;artifacts</title>
<path fill="none" stroke="red" stroke-dasharray="5,2" d="M228.58,-452.44C198.3,-415.56 157.54,-358.35 140.38,-300.13 122.1,-238.12 147.54,-166.62 171.9,-117.81"/>
<polygon fill="red" stroke="red" points="174.92,-119.59 176.37,-109.09 168.69,-116.39 174.92,-119.59"/>
<text xml:space="preserve" text-anchor="middle" x="184.25" y="-286.83" font-family="Arial" font-size="14.00">Failed:</text>
<text xml:space="preserve" text-anchor="middle" x="184.25" y="-271.83" font-family="Arial" font-size="14.00">Manual review</text>
</g>
<!-- validate&#45;&gt;status -->
<g id="edge21" class="edge">
<title>validate&#45;&gt;status</title>
<path fill="none" stroke="black" stroke-dasharray="1,5" d="M259.35,-452.58C248.46,-368.58 229.52,-180.4 271.12,-135.38 279.31,-126.53 331.13,-106.78 379.57,-89.67"/>
<polygon fill="black" stroke="black" points="380.45,-93.07 388.73,-86.45 378.13,-86.46 380.45,-93.07"/>
</g>
<!-- unlock -->
<g id="node13" class="node">
<title>unlock</title>
<polygon fill="#90caf9" stroke="black" points="401.88,-252.13 270.38,-252.13 270.38,-169.13 401.88,-169.13 401.88,-252.13"/>
<text xml:space="preserve" text-anchor="middle" x="336.12" y="-234.83" font-family="Arial" font-size="14.00">Stage 6: Unlock</text>
<text xml:space="preserve" text-anchor="middle" x="336.12" y="-219.83" font-family="Arial" font-size="14.00">• Final approval</text>
<text xml:space="preserve" text-anchor="middle" x="336.12" y="-204.83" font-family="Arial" font-size="14.00">• Ready for merge</text>
<text xml:space="preserve" text-anchor="middle" x="336.12" y="-189.83" font-family="Arial" font-size="14.00">• Consensus check</text>
<text xml:space="preserve" text-anchor="middle" x="336.12" y="-174.83" font-family="Arial" font-size="14.00">~10 min, ~$1</text>
</g>
<!-- audit&#45;&gt;unlock -->
<g id="edge15" class="edge">
<title>audit&#45;&gt;unlock</title>
<path fill="none" stroke="black" d="M332.85,-317.84C331.93,-311.92 331.14,-305.89 330.62,-300.13 329.57,-288.28 329.65,-275.51 330.28,-263.47"/>
<polygon fill="black" stroke="black" points="333.76,-263.92 330.94,-253.71 326.78,-263.45 333.76,-263.92"/>
<text xml:space="preserve" text-anchor="middle" x="373.38" y="-279.7" font-family="Arial" font-size="14.00">✓ Consensus</text>
</g>
<!-- audit&#45;&gt;status -->
<g id="edge22" class="edge">
<title>audit&#45;&gt;status</title>
<path fill="none" stroke="black" stroke-dasharray="1,5" d="M401.93,-317.74C407.29,-312.31 412.17,-306.42 416.12,-300.13 420.76,-292.74 440.67,-196.83 454.46,-128.4"/>
<polygon fill="black" stroke="black" points="457.86,-129.23 456.4,-118.74 451,-127.85 457.86,-129.23"/>
</g>
<!-- unlock&#45;&gt;artifacts -->
<g id="edge16" class="edge">
<title>unlock&#45;&gt;artifacts</title>
<path fill="none" stroke="black" d="M300.6,-168.66C286.65,-152.56 270.39,-133.82 255.34,-116.45"/>
<polygon fill="black" stroke="black" points="258.25,-114.47 249.05,-109.2 252.96,-119.05 258.25,-114.47"/>
<text xml:space="preserve" text-anchor="middle" x="321.02" y="-137.83" font-family="Arial" font-size="14.00">✓ Complete</text>
</g>
<!-- unlock&#45;&gt;status -->
<g id="edge23" class="edge">
<title>unlock&#45;&gt;status</title>
<path fill="none" stroke="black" stroke-dasharray="1,5" d="M372.19,-168.66C385.97,-153.01 401.95,-134.85 416.88,-117.9"/>
<polygon fill="black" stroke="black" points="419.12,-120.65 423.1,-110.83 413.87,-116.02 419.12,-120.65"/>
</g>
<!-- leg_cmd -->
<g id="node16" class="node">
<title>leg_cmd</title>
<ellipse fill="#e3f2fd" stroke="black" cx="751.12" cy="-1510.38" rx="72.79" ry="18"/>
<text xml:space="preserve" text-anchor="middle" x="751.12" y="-1504.58" font-family="Arial" font-size="14.00">User Command</text>
</g>
<!-- leg_stage -->
<g id="node17" class="node">
<title>leg_stage</title>
<polygon fill="#90caf9" stroke="black" points="802.62,-1439.38 699.62,-1439.38 699.62,-1403.38 802.62,-1403.38 802.62,-1439.38"/>
<text xml:space="preserve" text-anchor="middle" x="751.12" y="-1415.58" font-family="Arial" font-size="14.00">Pipeline Stage</text>
</g>
<!-- leg_cmd&#45;&gt;leg_stage -->
<!-- leg_output -->
<g id="node18" class="node">
<title>leg_output</title>
<polygon fill="#c8e6c9" stroke="black" points="803,-1316.38 800,-1320.38 779,-1320.38 776,-1316.38 699.25,-1316.38 699.25,-1280.38 803,-1280.38 803,-1316.38"/>
<text xml:space="preserve" text-anchor="middle" x="751.12" y="-1292.58" font-family="Arial" font-size="14.00">Output/Artifact</text>
</g>
<!-- leg_stage&#45;&gt;leg_output -->
<!-- leg_optional -->
<g id="node19" class="node">
<title>leg_optional</title>
<polygon fill="#c5e1a5" stroke="black" points="800.38,-1200.88 701.88,-1200.88 701.88,-1164.88 800.38,-1164.88 800.38,-1200.88"/>
<text xml:space="preserve" text-anchor="middle" x="751.12" y="-1177.08" font-family="Arial" font-size="14.00">Optional Step</text>
</g>
<!-- leg_output&#45;&gt;leg_optional -->
</g>
</svg>
