<?xml version="1.0" encoding="UTF-8" standalone="no"?>
<!DOCTYPE svg PUBLIC "-//W3C//DTD SVG 1.1//EN"
 "http://www.w3.org/Graphics/SVG/1.1/DTD/svg11.dtd">
<!-- Generated by graphviz version 14.0.2 (0)
 -->
<!-- Title: spec_kit_user_journey Pages: 1 -->
<svg width="854pt" height="1524pt"
 viewBox="0.00 0.00 854.00 1524.00" xmlns="http://www.w3.org/2000/svg" xmlns:xlink="http://www.w3.org/1999/xlink">
<g id="graph0" class="graph" transform="scale(1 1) rotate(0) translate(4 1520.13)">
<title>spec_kit_user_journey</title>
<polygon fill="white" stroke="none" points="-4,4 -4,-1520.13 850.25,-1520.13 850.25,4 -4,4"/>
<text xml:space="preserve" text-anchor="middle" x="423.12" y="-1498.83" font-family="Arial" font-size="14.00">Spec&#45;Kit User Journey</text>
<text xml:space="preserve" text-anchor="middle" x="423.12" y="-1483.83" font-family="Arial" font-size="14.00">High&#45;Level Command Flow</text>
<g id="clust1" class="cluster">
<title>cluster_legend</title>
<polygon fill="#fafafa" stroke="black" points="676.25,-1067.63 676.25,-1470.13 838.25,-1470.13 838.25,-1067.63 676.25,-1067.63"/>
<text xml:space="preserve" text-anchor="middle" x="757.25" y="-1452.83" font-family="Arial" font-size="14.00">Legend</text>
</g>
<!-- user -->
<g id="node1" class="node">
<title>user</title>
<ellipse fill="#e3f2fd" stroke="black" cx="552.25" cy="-1421.13" rx="114.23" ry="18"/>
<text xml:space="preserve" text-anchor="middle" x="552.25" y="-1415.33" font-family="Arial" font-size="14.00">/speckit.new &lt;description&gt;</text>
</g>
<!-- new_spec -->
<g id="node2" class="node">
<title>new_spec</title>
<polygon fill="#ffe082" stroke="black" points="573.88,-1366.13 432.62,-1366.13 432.62,-1298.13 573.88,-1298.13 573.88,-1366.13"/>
<text xml:space="preserve" text-anchor="middle" x="503.25" y="-1348.83" font-family="Arial" font-size="14.00">Create SPEC</text>
<text xml:space="preserve" text-anchor="middle" x="503.25" y="-1333.83" font-family="Arial" font-size="14.00">• Generate SPEC&#45;ID</text>
<text xml:space="preserve" text-anchor="middle" x="503.25" y="-1318.83" font-family="Arial" font-size="14.00">• Create directory</text>
<text xml:space="preserve" text-anchor="middle" x="503.25" y="-1303.83" font-family="Arial" font-size="14.00">• Apply templates</text>
</g>
<!-- user&#45;&gt;new_spec -->
<g id="edge1" class="edge">
<title>user&#45;&gt;new_spec</title>
<path fill="none" stroke="black" d="M542.57,-1402.94C538.22,-1395.22 532.88,-1385.73 527.55,-1376.27"/>
<polygon fill="black" stroke="black" points="530.74,-1374.8 522.78,-1367.81 524.64,-1378.24 530.74,-1374.8"/>
</g>
<!-- status -->
<g id="node15" class="node">
<title>status</title>
<ellipse fill="#b2dfdb" stroke="black" cx="489.25" cy="-58.69" rx="87.68" ry="58.69"/>
<text xml:space="preserve" text-anchor="middle" x="489.25" y="-82.89" font-family="Arial" font-size="14.00">/speckit.status</text>
<text xml:space="preserve" text-anchor="middle" x="489.25" y="-67.89" font-family="Arial" font-size="14.00">Native Dashboard</text>
<text xml:space="preserve" text-anchor="middle" x="489.25" y="-52.89" font-family="Arial" font-size="14.00">• Stage progress</text>
<text xml:space="preserve" text-anchor="middle" x="489.25" y="-37.89" font-family="Arial" font-size="14.00">• Evidence health</text>
<text xml:space="preserve" text-anchor="middle" x="489.25" y="-22.89" font-family="Arial" font-size="14.00">• Warnings</text>
</g>
<!-- user&#45;&gt;status -->
<g id="edge17" class="edge">
<title>user&#45;&gt;status</title>
<path fill="none" stroke="black" stroke-dasharray="5,2" d="M569.18,-1403.12C583.68,-1386.67 602.25,-1360.31 602.25,-1333.13 602.25,-1333.13 602.25,-1333.13 602.25,-209.63 602.25,-171.97 579.23,-137.76 553.97,-111.55"/>
<polygon fill="black" stroke="black" points="556.7,-109.34 547.15,-104.75 551.76,-114.29 556.7,-109.34"/>
<text xml:space="preserve" text-anchor="middle" x="625.12" y="-825.45" font-family="Arial" font-size="14.00">Monitor</text>
</g>
<!-- quality -->
<g id="node3" class="node">
<title>quality</title>
<polygon fill="#fff9c4" stroke="black" points="364.25,-1247.13 231.25,-1209.13 364.25,-1171.13 497.25,-1209.13 364.25,-1247.13"/>
<text xml:space="preserve" text-anchor="middle" x="364.25" y="-1210.83" font-family="Arial" font-size="14.00">Quality Commands</text>
<text xml:space="preserve" text-anchor="middle" x="364.25" y="-1195.83" font-family="Arial" font-size="14.00">(Optional)</text>
</g>
<!-- new_spec&#45;&gt;quality -->
<g id="edge2" class="edge">
<title>new_spec&#45;&gt;quality</title>
<path fill="none" stroke="black" d="M464.9,-1297.75C446.22,-1281.49 423.76,-1261.94 404.8,-1245.43"/>
<polygon fill="black" stroke="black" points="407.35,-1243.01 397.51,-1239.08 402.75,-1248.29 407.35,-1243.01"/>
<text xml:space="preserve" text-anchor="middle" x="467.57" y="-1266.83" font-family="Arial" font-size="14.00">Optional</text>
</g>
<!-- auto -->
<g id="node7" class="node">
<title>auto</title>
<polygon fill="#ff8a65" stroke="black" points="491.12,-1030.13 345.38,-1030.13 345.38,-977.13 491.12,-977.13 491.12,-1030.13"/>
<text xml:space="preserve" text-anchor="middle" x="418.25" y="-1012.83" font-family="Arial" font-size="14.00">/speckit.auto</text>
<text xml:space="preserve" text-anchor="middle" x="418.25" y="-997.83" font-family="Arial" font-size="14.00">• Full 6&#45;stage pipeline</text>
<text xml:space="preserve" text-anchor="middle" x="418.25" y="-982.83" font-family="Arial" font-size="14.00">• ~60 min, ~$11</text>
</g>
<!-- new_spec&#45;&gt;auto -->
<g id="edge3" class="edge">
<title>new_spec&#45;&gt;auto</title>
<path fill="none" stroke="black" d="M517.78,-1298.05C538.56,-1245.3 569.81,-1140.6 527.25,-1067.13 520.17,-1054.92 509.71,-1044.89 498.03,-1036.71"/>
<polygon fill="black" stroke="black" points="500.02,-1033.83 489.71,-1031.37 496.23,-1039.72 500.02,-1033.83"/>
<text xml:space="preserve" text-anchor="middle" x="566.06" y="-1139.83" font-family="Arial" font-size="14.00">Direct</text>
</g>
<!-- clarify -->
<g id="node4" class="node">
<title>clarify</title>
<polygon fill="#c5e1a5" stroke="black" points="152.5,-1120.13 0,-1120.13 0,-1067.13 152.5,-1067.13 152.5,-1120.13"/>
<text xml:space="preserve" text-anchor="middle" x="76.25" y="-1102.83" font-family="Arial" font-size="14.00">/speckit.clarify</text>
<text xml:space="preserve" text-anchor="middle" x="76.25" y="-1087.83" font-family="Arial" font-size="14.00">• Identify ambiguities</text>
<text xml:space="preserve" text-anchor="middle" x="76.25" y="-1072.83" font-family="Arial" font-size="14.00">• Suggest clarifications</text>
</g>
<!-- quality&#45;&gt;clarify -->
<g id="edge4" class="edge">
<title>quality&#45;&gt;clarify</title>
<path fill="none" stroke="black" d="M309.06,-1186.38C264.71,-1168.9 201.9,-1144.15 152.7,-1124.76"/>
<polygon fill="black" stroke="black" points="154.1,-1121.55 143.51,-1121.14 151.53,-1128.06 154.1,-1121.55"/>
<text xml:space="preserve" text-anchor="middle" x="254.38" y="-1139.83" font-family="Arial" font-size="14.00">Ambiguous</text>
</g>
<!-- analyze -->
<g id="node5" class="node">
<title>analyze</title>
<polygon fill="#c5e1a5" stroke="black" points="350.38,-1120.13 170.12,-1120.13 170.12,-1067.13 350.38,-1067.13 350.38,-1120.13"/>
<text xml:space="preserve" text-anchor="middle" x="260.25" y="-1102.83" font-family="Arial" font-size="14.00">/speckit.analyze</text>
<text xml:space="preserve" text-anchor="middle" x="260.25" y="-1087.83" font-family="Arial" font-size="14.00">• Cross&#45;artifact consistency</text>
<text xml:space="preserve" text-anchor="middle" x="260.25" y="-1072.83" font-family="Arial" font-size="14.00">• Auto&#45;fix issues</text>
</g>
<!-- quality&#45;&gt;analyze -->
<g id="edge5" class="edge">
<title>quality&#45;&gt;analyze</title>
<path fill="none" stroke="black" d="M337.2,-1178.61C323.28,-1163.42 306.25,-1144.83 291.74,-1129"/>
<polygon fill="black" stroke="black" points="294.34,-1126.65 285,-1121.65 289.18,-1131.38 294.34,-1126.65"/>
<text xml:space="preserve" text-anchor="middle" x="348.25" y="-1139.83" font-family="Arial" font-size="14.00">Inconsistent</text>
</g>
<!-- checklist -->
<g id="node6" class="node">
<title>checklist</title>
<polygon fill="#c5e1a5" stroke="black" points="518.38,-1120.13 368.12,-1120.13 368.12,-1067.13 518.38,-1067.13 518.38,-1120.13"/>
<text xml:space="preserve" text-anchor="middle" x="443.25" y="-1102.83" font-family="Arial" font-size="14.00">/speckit.checklist</text>
<text xml:space="preserve" text-anchor="middle" x="443.25" y="-1087.83" font-family="Arial" font-size="14.00">• Requirement scoring</text>
<text xml:space="preserve" text-anchor="middle" x="443.25" y="-1072.83" font-family="Arial" font-size="14.00">• Quality metrics</text>
</g>
<!-- quality&#45;&gt;checklist -->
<g id="edge6" class="edge">
<title>quality&#45;&gt;checklist</title>
<path fill="none" stroke="black" d="M385.84,-1177.12C396.05,-1162.44 408.29,-1144.85 418.85,-1129.69"/>
<polygon fill="black" stroke="black" points="421.46,-1132.06 424.3,-1121.86 415.71,-1128.07 421.46,-1132.06"/>
<text xml:space="preserve" text-anchor="middle" x="453.2" y="-1139.83" font-family="Arial" font-size="14.00">Quality Check</text>
</g>
<!-- clarify&#45;&gt;auto -->
<g id="edge7" class="edge">
<title>clarify&#45;&gt;auto</title>
<path fill="none" stroke="black" d="M152.65,-1069.5C155.55,-1068.69 158.42,-1067.9 161.25,-1067.13 218.62,-1051.56 283.69,-1035.75 334,-1023.93"/>
<polygon fill="black" stroke="black" points="334.74,-1027.35 343.68,-1021.67 333.14,-1020.54 334.74,-1027.35"/>
</g>
<!-- analyze&#45;&gt;auto -->
<g id="edge8" class="edge">
<title>analyze&#45;&gt;auto</title>
<path fill="none" stroke="black" d="M306.8,-1066.7C324.08,-1057.08 343.87,-1046.06 361.93,-1036"/>
<polygon fill="black" stroke="black" points="363.4,-1039.18 370.44,-1031.26 360,-1033.07 363.4,-1039.18"/>
</g>
<!-- checklist&#45;&gt;auto -->
<g id="edge9" class="edge">
<title>checklist&#45;&gt;auto</title>
<path fill="none" stroke="black" d="M435.88,-1066.7C433.62,-1058.74 431.09,-1049.81 428.66,-1041.27"/>
<polygon fill="black" stroke="black" points="432.08,-1040.49 425.98,-1031.83 425.34,-1042.4 432.08,-1040.49"/>
</g>
<!-- plan -->
<g id="node8" class="node">
<title>plan</title>
<polygon fill="#90caf9" stroke="black" points="491.88,-940.13 344.62,-940.13 344.62,-857.13 491.88,-857.13 491.88,-940.13"/>
<text xml:space="preserve" text-anchor="middle" x="418.25" y="-922.83" font-family="Arial" font-size="14.00">Stage 1: Plan</text>
<text xml:space="preserve" text-anchor="middle" x="418.25" y="-907.83" font-family="Arial" font-size="14.00">• Guardrail validation</text>
<text xml:space="preserve" text-anchor="middle" x="418.25" y="-892.83" font-family="Arial" font-size="14.00">• Multi&#45;agent planning</text>
<text xml:space="preserve" text-anchor="middle" x="418.25" y="-877.83" font-family="Arial" font-size="14.00">• Consensus check</text>
<text xml:space="preserve" text-anchor="middle" x="418.25" y="-862.83" font-family="Arial" font-size="14.00">~10 min, ~$1</text>
</g>
<!-- auto&#45;&gt;plan -->
<g id="edge10" class="edge">
<title>auto&#45;&gt;plan</title>
<path fill="none" stroke="black" d="M418.25,-976.64C418.25,-969.01 418.25,-960.39 418.25,-951.75"/>
<polygon fill="black" stroke="black" points="421.75,-951.96 418.25,-941.96 414.75,-951.96 421.75,-951.96"/>
</g>
<!-- plan&#45;&gt;plan -->
<g id="edge24" class="edge">
<title>plan&#45;&gt;plan</title>
<path fill="none" stroke="red" stroke-dasharray="5,2" d="M492.31,-908.73C502.82,-907.09 509.88,-903.73 509.88,-898.63 509.88,-895.6 507.39,-893.19 503.17,-891.38"/>
<polygon fill="red" stroke="red" points="504.33,-888.07 493.77,-888.92 502.56,-894.84 504.33,-888.07"/>
<text xml:space="preserve" text-anchor="middle" x="535.75" y="-900.33" font-family="Arial" font-size="14.00">Retry on</text>
<text xml:space="preserve" text-anchor="middle" x="535.75" y="-885.33" font-family="Arial" font-size="14.00">failure</text>
</g>
<!-- tasks -->
<g id="node9" class="node">
<title>tasks</title>
<polygon fill="#90caf9" stroke="black" points="484.75,-805.38 339.75,-805.38 339.75,-722.38 484.75,-722.38 484.75,-805.38"/>
<text xml:space="preserve" text-anchor="middle" x="412.25" y="-788.08" font-family="Arial" font-size="14.00">Stage 2: Tasks</text>
<text xml:space="preserve" text-anchor="middle" x="412.25" y="-773.08" font-family="Arial" font-size="14.00">• Task decomposition</text>
<text xml:space="preserve" text-anchor="middle" x="412.25" y="-758.08" font-family="Arial" font-size="14.00">• Work breakdown</text>
<text xml:space="preserve" text-anchor="middle" x="412.25" y="-743.08" font-family="Arial" font-size="14.00">• Consensus check</text>
<text xml:space="preserve" text-anchor="middle" x="412.25" y="-728.08" font-family="Arial" font-size="14.00">~10 min, ~$1</text>
</g>
<!-- plan&#45;&gt;tasks -->
<g id="edge11" class="edge">
<title>plan&#45;&gt;tasks</title>
<path fill="none" stroke="black" d="M416.4,-856.72C415.83,-844.11 415.2,-830.05 414.6,-816.81"/>
<polygon fill="black" stroke="black" points="418.1,-816.77 414.15,-806.94 411.11,-817.09 418.1,-816.77"/>
<text xml:space="preserve" text-anchor="middle" x="458.18" y="-825.83" font-family="Arial" font-size="14.00">✓ Consensus</text>
</g>
<!-- plan&#45;&gt;status -->
<g id="edge18" class="edge">
<title>plan&#45;&gt;status</title>
<path fill="none" stroke="black" stroke-dasharray="1,5" d="M492.11,-863.62C528.32,-841.4 564.25,-808.39 564.25,-764.88 564.25,-764.88 564.25,-764.88 564.25,-209.63 564.25,-178.27 550.97,-146.75 535.58,-120.76"/>
<polygon fill="black" stroke="black" points="538.63,-119.04 530.4,-112.37 532.67,-122.72 538.63,-119.04"/>
</g>
<!-- tasks&#45;&gt;tasks -->
<g id="edge25" class="edge">
<title>tasks&#45;&gt;tasks</title>
<path fill="none" stroke="red" stroke-dasharray="5,2" d="M485.04,-775.28C495.62,-773.47 502.75,-769.67 502.75,-763.88 502.75,-760.44 500.24,-757.71 495.98,-755.67"/>
<polygon fill="red" stroke="red" points="497.07,-752.34 486.49,-752.9 495.11,-759.06 497.07,-752.34"/>
<text xml:space="preserve" text-anchor="middle" x="519.25" y="-758.08" font-family="Arial" font-size="14.00">Retry</text>
</g>
<!-- implement -->
<g id="node10" class="node">
<title>implement</title>
<polygon fill="#90caf9" stroke="black" points="479.5,-670.63 345,-670.63 345,-587.63 479.5,-587.63 479.5,-670.63"/>
<text xml:space="preserve" text-anchor="middle" x="412.25" y="-653.33" font-family="Arial" font-size="14.00">Stage 3: Implement</text>
<text xml:space="preserve" text-anchor="middle" x="412.25" y="-638.33" font-family="Arial" font-size="14.00">• Code generation</text>
<text xml:space="preserve" text-anchor="middle" x="412.25" y="-623.33" font-family="Arial" font-size="14.00">• Quality validation</text>
<text xml:space="preserve" text-anchor="middle" x="412.25" y="-608.33" font-family="Arial" font-size="14.00">• Consensus check</text>
<text xml:space="preserve" text-anchor="middle" x="412.25" y="-593.33" font-family="Arial" font-size="14.00">~15 min, ~$2</text>
</g>
<!-- tasks&#45;&gt;implement -->
<g id="edge12" class="edge">
<title>tasks&#45;&gt;implement</title>
<path fill="none" stroke="black" d="M412.25,-721.97C412.25,-709.36 412.25,-695.3 412.25,-682.06"/>
<polygon fill="black" stroke="black" points="415.75,-682.19 412.25,-672.19 408.75,-682.19 415.75,-682.19"/>
<text xml:space="preserve" text-anchor="middle" x="455" y="-691.08" font-family="Arial" font-size="14.00">✓ Consensus</text>
</g>
<!-- tasks&#45;&gt;status -->
<g id="edge19" class="edge">
<title>tasks&#45;&gt;status</title>
<path fill="none" stroke="black" stroke-dasharray="1,5" d="M484.93,-722.36C491.33,-716.89 497.26,-710.89 502.25,-704.38 523.34,-676.84 526.25,-664.81 526.25,-630.13 526.25,-630.13 526.25,-630.13 526.25,-209.63 526.25,-182.19 520.34,-152.72 513.24,-127.23"/>
<polygon fill="black" stroke="black" points="516.6,-126.28 510.44,-117.65 509.88,-128.23 516.6,-126.28"/>
</g>
<!-- validate -->
<g id="node11" class="node">
<title>validate</title>
<polygon fill="#90caf9" stroke="black" points="441,-521.63 309.5,-521.63 309.5,-438.63 441,-438.63 441,-521.63"/>
<text xml:space="preserve" text-anchor="middle" x="375.25" y="-504.33" font-family="Arial" font-size="14.00">Stage 4: Validate</text>
<text xml:space="preserve" text-anchor="middle" x="375.25" y="-489.33" font-family="Arial" font-size="14.00">• Test strategy</text>
<text xml:space="preserve" text-anchor="middle" x="375.25" y="-474.33" font-family="Arial" font-size="14.00">• Validation plan</text>
<text xml:space="preserve" text-anchor="middle" x="375.25" y="-459.33" font-family="Arial" font-size="14.00">• Consensus check</text>
<text xml:space="preserve" text-anchor="middle" x="375.25" y="-444.33" font-family="Arial" font-size="14.00">~10 min, ~$1</text>
</g>
<!-- implement&#45;&gt;validate -->
<g id="edge13" class="edge">
<title>implement&#45;&gt;validate</title>
<path fill="none" stroke="black" d="M344.86,-617.93C316.07,-609.87 285.15,-595.44 267.75,-569.63 252.23,-546.6 272.29,-526.41 299.12,-511.16"/>
<polygon fill="black" stroke="black" points="300.74,-514.27 307.93,-506.48 297.45,-508.09 300.74,-514.27"/>
<text xml:space="preserve" text-anchor="middle" x="310.5" y="-549.2" font-family="Arial" font-size="14.00">✓ Consensus</text>
</g>
<!-- implement&#45;&gt;validate -->
<g id="edge26" class="edge">
<title>implement&#45;&gt;validate</title>
<path fill="none" stroke="red" stroke-dasharray="5,2" d="M383.6,-587.22C380.71,-581.52 378.22,-575.58 376.5,-569.63 373.17,-558.11 371.75,-545.38 371.4,-533.26"/>
<polygon fill="red" stroke="red" points="374.9,-533.38 371.35,-523.4 367.9,-533.41 374.9,-533.38"/>
<text xml:space="preserve" text-anchor="middle" x="394.88" y="-548.83" font-family="Arial" font-size="14.00">Failed</text>
</g>
<!-- implement&#45;&gt;status -->
<g id="edge20" class="edge">
<title>implement&#45;&gt;status</title>
<path fill="none" stroke="black" stroke-dasharray="1,5" d="M448.91,-587.33C453.08,-581.62 456.99,-575.64 460.25,-569.63 479.91,-533.36 488.25,-522.38 488.25,-481.13 488.25,-481.13 488.25,-481.13 488.25,-209.63 488.25,-183.33 488.41,-154.44 488.59,-129.09"/>
<polygon fill="black" stroke="black" points="492.09,-129.26 488.67,-119.23 485.09,-129.21 492.09,-129.26"/>
</g>
<!-- validate&#45;&gt;implement -->
<g id="edge27" class="edge">
<title>validate&#45;&gt;implement</title>
<path fill="none" stroke="red" stroke-dasharray="5,2" d="M405.78,-521.87C408.83,-527.59 411.46,-533.59 413.25,-539.63 416.66,-551.13 417.89,-563.84 417.97,-575.96"/>
<polygon fill="red" stroke="red" points="414.47,-575.75 417.75,-585.83 421.47,-575.91 414.47,-575.75"/>
<text xml:space="preserve" text-anchor="middle" x="436.88" y="-556.33" font-family="Arial" font-size="14.00">Max 2</text>
<text xml:space="preserve" text-anchor="middle" x="436.88" y="-541.33" font-family="Arial" font-size="14.00">retries</text>
</g>
<!-- audit -->
<g id="node12" class="node">
<title>audit</title>
<polygon fill="#90caf9" stroke="black" points="420.62,-386.88 277.88,-386.88 277.88,-303.88 420.62,-303.88 420.62,-386.88"/>
<text xml:space="preserve" text-anchor="middle" x="349.25" y="-369.58" font-family="Arial" font-size="14.00">Stage 5: Audit</text>
<text xml:space="preserve" text-anchor="middle" x="349.25" y="-354.58" font-family="Arial" font-size="14.00">• Compliance checks</text>
<text xml:space="preserve" text-anchor="middle" x="349.25" y="-339.58" font-family="Arial" font-size="14.00">• Security review</text>
<text xml:space="preserve" text-anchor="middle" x="349.25" y="-324.58" font-family="Arial" font-size="14.00">• Consensus check</text>
<text xml:space="preserve" text-anchor="middle" x="349.25" y="-309.58" font-family="Arial" font-size="14.00">~10 min, ~$1</text>
</g>
<!-- validate&#45;&gt;audit -->
<g id="edge14" class="edge">
<title>validate&#45;&gt;audit</title>
<path fill="none" stroke="black" d="M355.86,-438.21C353.78,-432.41 351.98,-426.45 350.75,-420.63 349.24,-413.51 348.33,-405.92 347.82,-398.41"/>
<polygon fill="black" stroke="black" points="351.33,-398.51 347.39,-388.67 344.33,-398.81 351.33,-398.51"/>
<text xml:space="preserve" text-anchor="middle" x="393.5" y="-407.33" font-family="Arial" font-size="14.00">✓ Consensus</text>
</g>
<!-- validate&#45;&gt;status -->
<g id="edge21" class="edge">
<title>validate&#45;&gt;status</title>
<path fill="none" stroke="black" stroke-dasharray="1,5" d="M424.31,-438.47C428.93,-432.89 433.06,-426.91 436.25,-420.63 494.1,-306.56 453.36,-261.56 474.25,-135.38 474.63,-133.06 475.04,-130.7 475.45,-128.31"/>
<polygon fill="black" stroke="black" points="478.88,-129.02 477.21,-118.55 471.99,-127.77 478.88,-129.02"/>
</g>
<!-- unlock -->
<g id="node13" class="node">
<title>unlock</title>
<polygon fill="#90caf9" stroke="black" points="377,-252.13 245.5,-252.13 245.5,-169.13 377,-169.13 377,-252.13"/>
<text xml:space="preserve" text-anchor="middle" x="311.25" y="-234.83" font-family="Arial" font-size="14.00">Stage 6: Unlock</text>
<text xml:space="preserve" text-anchor="middle" x="311.25" y="-219.83" font-family="Arial" font-size="14.00">• Final approval</text>
<text xml:space="preserve" text-anchor="middle" x="311.25" y="-204.83" font-family="Arial" font-size="14.00">• Ready for merge</text>
<text xml:space="preserve" text-anchor="middle" x="311.25" y="-189.83" font-family="Arial" font-size="14.00">• Consensus check</text>
<text xml:space="preserve" text-anchor="middle" x="311.25" y="-174.83" font-family="Arial" font-size="14.00">~10 min, ~$1</text>
</g>
<!-- audit&#45;&gt;unlock -->
<g id="edge15" class="edge">
<title>audit&#45;&gt;unlock</title>
<path fill="none" stroke="black" d="M320.04,-303.51C317.08,-297.8 314.52,-291.85 312.75,-285.88 310.65,-278.82 309.41,-271.22 308.76,-263.66"/>
<polygon fill="black" stroke="black" points="312.26,-263.63 308.25,-253.82 305.27,-263.99 312.26,-263.63"/>
<text xml:space="preserve" text-anchor="middle" x="355.5" y="-272.58" font-family="Arial" font-size="14.00">✓ Consensus</text>
</g>
<!-- audit&#45;&gt;status -->
<g id="edge22" class="edge">
<title>audit&#45;&gt;status</title>
<path fill="none" stroke="black" stroke-dasharray="1,5" d="M387.28,-303.5C391.38,-297.84 395.18,-291.9 398.25,-285.88 429.63,-224.44 407.55,-198.11 436.25,-135.38 438.47,-130.53 441.01,-125.66 443.74,-120.86"/>
<polygon fill="black" stroke="black" points="446.65,-122.81 448.81,-112.44 440.66,-119.2 446.65,-122.81"/>
</g>
<!-- artifacts -->
<g id="node14" class="node">
<title>artifacts</title>
<polygon fill="#c8e6c9" stroke="black" points="384,-107.69 381,-111.69 360,-111.69 357,-107.69 204.5,-107.69 204.5,-9.69 384,-9.69 384,-107.69"/>
<text xml:space="preserve" text-anchor="middle" x="294.25" y="-90.39" font-family="Arial" font-size="14.00">Artifacts Created</text>
<text xml:space="preserve" text-anchor="middle" x="294.25" y="-75.39" font-family="Arial" font-size="14.00">• docs/SPEC&#45;&lt;ID&gt;&#45;&lt;slug&gt;/</text>
<text xml:space="preserve" text-anchor="middle" x="294.25" y="-60.39" font-family="Arial" font-size="14.00"> &#160;&#45; spec.md, PRD.md</text>
<text xml:space="preserve" text-anchor="middle" x="294.25" y="-45.39" font-family="Arial" font-size="14.00"> &#160;&#45; plan.md, tasks.md</text>
<text xml:space="preserve" text-anchor="middle" x="294.25" y="-30.39" font-family="Arial" font-size="14.00">• SPEC.md updated</text>
<text xml:space="preserve" text-anchor="middle" x="294.25" y="-15.39" font-family="Arial" font-size="14.00">• Evidence telemetry</text>
</g>
<!-- unlock&#45;&gt;artifacts -->
<g id="edge16" class="edge">
<title>unlock&#45;&gt;artifacts</title>
<path fill="none" stroke="black" d="M299.97,-168.93C298.68,-163 297.54,-156.94 296.75,-151.13 295.35,-140.84 294.5,-129.85 294.02,-119.18"/>
<polygon fill="black" stroke="black" points="297.52,-119.16 293.67,-109.29 290.52,-119.41 297.52,-119.16"/>
<text xml:space="preserve" text-anchor="middle" x="335" y="-137.83" font-family="Arial" font-size="14.00">✓ Complete</text>
</g>
<!-- unlock&#45;&gt;status -->
<g id="edge23" class="edge">
<title>unlock&#45;&gt;status</title>
<path fill="none" stroke="black" stroke-dasharray="1,5" d="M359.89,-168.66C380.43,-151.36 404.6,-130.99 426.46,-112.58"/>
<polygon fill="black" stroke="black" points="428.48,-115.46 433.87,-106.34 423.97,-110.1 428.48,-115.46"/>
</g>
<!-- leg_cmd -->
<g id="node16" class="node">
<title>leg_cmd</title>
<ellipse fill="#e3f2fd" stroke="black" cx="757.25" cy="-1421.13" rx="72.79" ry="18"/>
<text xml:space="preserve" text-anchor="middle" x="757.25" y="-1415.33" font-family="Arial" font-size="14.00">User Command</text>
</g>
<!-- leg_stage -->
<g id="node17" class="node">
<title>leg_stage</title>
<polygon fill="#90caf9" stroke="black" points="808.75,-1350.13 705.75,-1350.13 705.75,-1314.13 808.75,-1314.13 808.75,-1350.13"/>
<text xml:space="preserve" text-anchor="middle" x="757.25" y="-1326.33" font-family="Arial" font-size="14.00">Pipeline Stage</text>
</g>
<!-- leg_cmd&#45;&gt;leg_stage -->
<!-- leg_output -->
<g id="node18" class="node">
<title>leg_output</title>
<polygon fill="#c8e6c9" stroke="black" points="809.12,-1227.13 806.12,-1231.13 785.12,-1231.13 782.12,-1227.13 705.38,-1227.13 705.38,-1191.13 809.12,-1191.13 809.12,-1227.13"/>
<text xml:space="preserve" text-anchor="middle" x="757.25" y="-1203.33" font-family="Arial" font-size="14.00">Output/Artifact</text>
</g>
<!-- leg_stage&#45;&gt;leg_output -->
<!-- leg_optional -->
<g id="node19" class="node">
<title>leg_optional</title>
<polygon fill="#c5e1a5" stroke="black" points="806.5,-1111.63 708,-1111.63 708,-1075.63 806.5,-1075.63 806.5,-1111.63"/>
<text xml:space="preserve" text-anchor="middle" x="757.25" y="-1087.83" font-family="Arial" font-size="14.00">Optional Step</text>
</g>
<!-- leg_output&#45;&gt;leg_optional -->
</g>
</svg>
