<?xml version="1.0" encoding="UTF-8" standalone="no"?>
<!DOCTYPE svg PUBLIC "-//W3C//DTD SVG 1.1//EN"
 "http://www.w3.org/Graphics/SVG/1.1/DTD/svg11.dtd">
<!-- Generated by graphviz version 14.0.2 (0)
 -->
<!-- Title: spec_kit_user_journey Pages: 1 -->
<svg width="848pt" height="1598pt"
 viewBox="0.00 0.00 848.00 1598.00" xmlns="http://www.w3.org/2000/svg" xmlns:xlink="http://www.w3.org/1999/xlink">
<g id="graph0" class="graph" transform="scale(1 1) rotate(0) translate(4 1594.38)">
<title>spec_kit_user_journey</title>
<polygon fill="white" stroke="none" points="-4,4 -4,-1594.38 844.12,-1594.38 844.12,4 -4,4"/>
<text xml:space="preserve" text-anchor="middle" x="420.06" y="-1573.08" font-family="Arial" font-size="14.00">Spec&#45;Kit User Journey</text>
<text xml:space="preserve" text-anchor="middle" x="420.06" y="-1558.08" font-family="Arial" font-size="14.00">High&#45;Level Command Flow</text>
<g id="clust1" class="cluster">
<title>cluster_legend</title>
<polygon fill="#fafafa" stroke="black" points="670.12,-1141.88 670.12,-1544.38 832.12,-1544.38 832.12,-1141.88 670.12,-1141.88"/>
<text xml:space="preserve" text-anchor="middle" x="751.12" y="-1527.08" font-family="Arial" font-size="14.00">Legend</text>
</g>
<!-- user -->
<g id="node1" class="node">
<title>user</title>
<ellipse fill="#e3f2fd" stroke="black" cx="546.12" cy="-1495.38" rx="114.23" ry="18"/>
<text xml:space="preserve" text-anchor="middle" x="546.12" y="-1489.58" font-family="Arial" font-size="14.00">/speckit.new &lt;description&gt;</text>
</g>
<!-- new_spec -->
<g id="node2" class="node">
<title>new_spec</title>
<polygon fill="#ffe082" stroke="black" points="567.75,-1440.38 426.5,-1440.38 426.5,-1372.38 567.75,-1372.38 567.75,-1440.38"/>
<text xml:space="preserve" text-anchor="middle" x="497.12" y="-1423.08" font-family="Arial" font-size="14.00">Create SPEC</text>
<text xml:space="preserve" text-anchor="middle" x="497.12" y="-1408.08" font-family="Arial" font-size="14.00">• Generate SPEC&#45;ID</text>
<text xml:space="preserve" text-anchor="middle" x="497.12" y="-1393.08" font-family="Arial" font-size="14.00">• Create directory</text>
<text xml:space="preserve" text-anchor="middle" x="497.12" y="-1378.08" font-family="Arial" font-size="14.00">• Apply templates</text>
</g>
<!-- user&#45;&gt;new_spec -->
<g id="edge1" class="edge">
<title>user&#45;&gt;new_spec</title>
<path fill="none" stroke="black" d="M536.44,-1477.19C532.1,-1469.47 526.75,-1459.98 521.42,-1450.52"/>
<polygon fill="black" stroke="black" points="524.61,-1449.05 516.66,-1442.06 518.51,-1452.49 524.61,-1449.05"/>
</g>
<!-- status -->
<g id="node15" class="node">
<title>status</title>
<ellipse fill="#b2dfdb" stroke="black" cx="478.12" cy="-58.69" rx="87.68" ry="58.69"/>
<text xml:space="preserve" text-anchor="middle" x="478.12" y="-82.89" font-family="Arial" font-size="14.00">/speckit.status</text>
<text xml:space="preserve" text-anchor="middle" x="478.12" y="-67.89" font-family="Arial" font-size="14.00">Native Dashboard</text>
<text xml:space="preserve" text-anchor="middle" x="478.12" y="-52.89" font-family="Arial" font-size="14.00">• Stage progress</text>
<text xml:space="preserve" text-anchor="middle" x="478.12" y="-37.89" font-family="Arial" font-size="14.00">• Evidence health</text>
<text xml:space="preserve" text-anchor="middle" x="478.12" y="-22.89" font-family="Arial" font-size="14.00">• Warnings</text>
</g>
<!-- user&#45;&gt;status -->
<g id="edge17" class="edge">
<title>user&#45;&gt;status</title>
<path fill="none" stroke="black" stroke-dasharray="5,2" d="M563.05,-1477.37C577.56,-1460.92 596.12,-1434.56 596.12,-1407.38 596.12,-1407.38 596.12,-1407.38 596.12,-209.63 596.12,-171.05 571.71,-136.55 545.09,-110.39"/>
<polygon fill="black" stroke="black" points="547.55,-107.9 537.88,-103.58 542.75,-112.99 547.55,-107.9"/>
<text xml:space="preserve" text-anchor="middle" x="619" y="-862.58" font-family="Arial" font-size="14.00">Monitor</text>
</g>
<!-- quality -->
<g id="node3" class="node">
<title>quality</title>
<polygon fill="#fff9c4" stroke="black" points="361.12,-1321.38 228.13,-1283.38 361.12,-1245.38 494.12,-1283.38 361.12,-1321.38"/>
<text xml:space="preserve" text-anchor="middle" x="361.12" y="-1285.08" font-family="Arial" font-size="14.00">Quality Commands</text>
<text xml:space="preserve" text-anchor="middle" x="361.12" y="-1270.08" font-family="Arial" font-size="14.00">(Optional)</text>
</g>
<!-- new_spec&#45;&gt;quality -->
<g id="edge2" class="edge">
<title>new_spec&#45;&gt;quality</title>
<path fill="none" stroke="black" d="M459.6,-1372C441.47,-1355.86 419.68,-1336.48 401.22,-1320.05"/>
<polygon fill="black" stroke="black" points="403.92,-1317.77 394.13,-1313.74 399.27,-1323 403.92,-1317.77"/>
<text xml:space="preserve" text-anchor="middle" x="462.77" y="-1341.08" font-family="Arial" font-size="14.00">Optional</text>
</g>
<!-- auto -->
<g id="node7" class="node">
<title>auto</title>
<polygon fill="#ff8a65" stroke="black" points="501,-1104.38 355.25,-1104.38 355.25,-1036.38 501,-1036.38 501,-1104.38"/>
<text xml:space="preserve" text-anchor="middle" x="428.12" y="-1087.08" font-family="Arial" font-size="14.00">/speckit.auto</text>
<text xml:space="preserve" text-anchor="middle" x="428.12" y="-1072.08" font-family="Arial" font-size="14.00">• Full 6&#45;stage pipeline</text>
<text xml:space="preserve" text-anchor="middle" x="428.12" y="-1057.08" font-family="Arial" font-size="14.00">• ACE&#45;enhanced</text>
<text xml:space="preserve" text-anchor="middle" x="428.12" y="-1042.08" font-family="Arial" font-size="14.00">• ~75 min, ~$11.50</text>
</g>
<!-- new_spec&#45;&gt;auto -->
<g id="edge3" class="edge">
<title>new_spec&#45;&gt;auto</title>
<path fill="none" stroke="black" d="M512.34,-1371.94C533.75,-1319.6 566.04,-1216.55 527.12,-1141.38 521.29,-1130.1 512.7,-1120.25 502.99,-1111.78"/>
<polygon fill="black" stroke="black" points="505.36,-1109.2 495.38,-1105.65 500.97,-1114.65 505.36,-1109.2"/>
<text xml:space="preserve" text-anchor="middle" x="562.97" y="-1214.08" font-family="Arial" font-size="14.00">Direct</text>
</g>
<!-- clarify -->
<g id="node4" class="node">
<title>clarify</title>
<polygon fill="#c5e1a5" stroke="black" points="320.38,-1194.38 167.88,-1194.38 167.88,-1141.38 320.38,-1141.38 320.38,-1194.38"/>
<text xml:space="preserve" text-anchor="middle" x="244.12" y="-1177.08" font-family="Arial" font-size="14.00">/speckit.clarify</text>
<text xml:space="preserve" text-anchor="middle" x="244.12" y="-1162.08" font-family="Arial" font-size="14.00">• Identify ambiguities</text>
<text xml:space="preserve" text-anchor="middle" x="244.12" y="-1147.08" font-family="Arial" font-size="14.00">• Suggest clarifications</text>
</g>
<!-- quality&#45;&gt;clarify -->
<g id="edge4" class="edge">
<title>quality&#45;&gt;clarify</title>
<path fill="none" stroke="black" d="M331.3,-1253.45C315.24,-1237.87 295.35,-1218.57 278.63,-1202.35"/>
<polygon fill="black" stroke="black" points="281.4,-1200.17 271.79,-1195.72 276.53,-1205.19 281.4,-1200.17"/>
<text xml:space="preserve" text-anchor="middle" x="336.75" y="-1214.08" font-family="Arial" font-size="14.00">Ambiguous</text>
</g>
<!-- analyze -->
<g id="node5" class="node">
<title>analyze</title>
<polygon fill="#c5e1a5" stroke="black" points="518.25,-1194.38 338,-1194.38 338,-1141.38 518.25,-1141.38 518.25,-1194.38"/>
<text xml:space="preserve" text-anchor="middle" x="428.12" y="-1177.08" font-family="Arial" font-size="14.00">/speckit.analyze</text>
<text xml:space="preserve" text-anchor="middle" x="428.12" y="-1162.08" font-family="Arial" font-size="14.00">• Cross&#45;artifact consistency</text>
<text xml:space="preserve" text-anchor="middle" x="428.12" y="-1147.08" font-family="Arial" font-size="14.00">• Auto&#45;fix issues</text>
</g>
<!-- quality&#45;&gt;analyze -->
<g id="edge5" class="edge">
<title>quality&#45;&gt;analyze</title>
<path fill="none" stroke="black" d="M379.97,-1250.46C388.39,-1236.18 398.36,-1219.3 407.04,-1204.6"/>
<polygon fill="black" stroke="black" points="409.97,-1206.53 412.04,-1196.14 403.94,-1202.97 409.97,-1206.53"/>
<text xml:space="preserve" text-anchor="middle" x="436.63" y="-1214.08" font-family="Arial" font-size="14.00">Inconsistent</text>
</g>
<!-- checklist -->
<g id="node6" class="node">
<title>checklist</title>
<polygon fill="#c5e1a5" stroke="black" points="150.25,-1194.38 0,-1194.38 0,-1141.38 150.25,-1141.38 150.25,-1194.38"/>
<text xml:space="preserve" text-anchor="middle" x="75.12" y="-1177.08" font-family="Arial" font-size="14.00">/speckit.checklist</text>
<text xml:space="preserve" text-anchor="middle" x="75.12" y="-1162.08" font-family="Arial" font-size="14.00">• Requirement scoring</text>
<text xml:space="preserve" text-anchor="middle" x="75.12" y="-1147.08" font-family="Arial" font-size="14.00">• Quality metrics</text>
</g>
<!-- quality&#45;&gt;checklist -->
<g id="edge6" class="edge">
<title>quality&#45;&gt;checklist</title>
<path fill="none" stroke="black" d="M299.96,-1262.52C270.52,-1252.6 234.87,-1240.02 203.38,-1227.38 182.29,-1218.92 159.64,-1208.9 139.33,-1199.57"/>
<polygon fill="black" stroke="black" points="140.85,-1196.42 130.31,-1195.4 137.92,-1202.78 140.85,-1196.42"/>
<text xml:space="preserve" text-anchor="middle" x="245.75" y="-1214.08" font-family="Arial" font-size="14.00">Quality Check</text>
</g>
<!-- clarify&#45;&gt;auto -->
<g id="edge7" class="edge">
<title>clarify&#45;&gt;auto</title>
<path fill="none" stroke="black" d="M293.92,-1141.04C312.31,-1131.49 333.57,-1120.45 353.68,-1110.02"/>
<polygon fill="black" stroke="black" points="355.14,-1113.2 362.41,-1105.49 351.92,-1106.99 355.14,-1113.2"/>
</g>
<!-- analyze&#45;&gt;auto -->
<g id="edge8" class="edge">
<title>analyze&#45;&gt;auto</title>
<path fill="none" stroke="black" d="M428.12,-1141.04C428.12,-1133.36 428.12,-1124.73 428.12,-1116.22"/>
<polygon fill="black" stroke="black" points="431.63,-1116.31 428.13,-1106.31 424.63,-1116.31 431.63,-1116.31"/>
</g>
<!-- checklist&#45;&gt;auto -->
<g id="edge9" class="edge">
<title>checklist&#45;&gt;auto</title>
<path fill="none" stroke="black" d="M150.64,-1143.8C153.5,-1142.97 156.34,-1142.17 159.12,-1141.38 220.7,-1124.03 290.64,-1105.88 343.77,-1092.41"/>
<polygon fill="black" stroke="black" points="344.54,-1095.82 353.37,-1089.98 342.82,-1089.04 344.54,-1095.82"/>
</g>
<!-- plan -->
<g id="node8" class="node">
<title>plan</title>
<polygon fill="#90caf9" stroke="black" points="547.12,-999.38 351.12,-999.38 351.12,-901.38 547.12,-901.38 547.12,-999.38"/>
<text xml:space="preserve" text-anchor="middle" x="449.12" y="-982.08" font-family="Arial" font-size="14.00">Stage 1: Plan</text>
<text xml:space="preserve" text-anchor="middle" x="449.12" y="-967.08" font-family="Arial" font-size="14.00">• Quality: Clarify (ambiguities)</text>
<text xml:space="preserve" text-anchor="middle" x="449.12" y="-952.08" font-family="Arial" font-size="14.00">• Guardrail validation</text>
<text xml:space="preserve" text-anchor="middle" x="449.12" y="-937.08" font-family="Arial" font-size="14.00">• ACE + Multi&#45;agent planning</text>
<text xml:space="preserve" text-anchor="middle" x="449.12" y="-922.08" font-family="Arial" font-size="14.00">• Consensus check</text>
<text xml:space="preserve" text-anchor="middle" x="449.12" y="-907.08" font-family="Arial" font-size="14.00">~18 min, ~$1.30</text>
</g>
<!-- auto&#45;&gt;plan -->
<g id="edge10" class="edge">
<title>auto&#45;&gt;plan</title>
<path fill="none" stroke="black" d="M434.09,-1035.88C435.49,-1028.02 437.02,-1019.4 438.55,-1010.78"/>
<polygon fill="black" stroke="black" points="441.99,-1011.45 440.3,-1000.99 435.1,-1010.22 441.99,-1011.45"/>
</g>
<!-- tasks -->
<g id="node9" class="node">
<title>tasks</title>
<polygon fill="#90caf9" stroke="black" points="522.12,-835.38 308.12,-835.38 308.12,-737.38 522.12,-737.38 522.12,-835.38"/>
<text xml:space="preserve" text-anchor="middle" x="415.12" y="-818.08" font-family="Arial" font-size="14.00">Stage 2: Tasks</text>
<text xml:space="preserve" text-anchor="middle" x="415.12" y="-803.08" font-family="Arial" font-size="14.00">• Quality: Checklist (PRD quality)</text>
<text xml:space="preserve" text-anchor="middle" x="415.12" y="-788.08" font-family="Arial" font-size="14.00">• Guardrail validation</text>
<text xml:space="preserve" text-anchor="middle" x="415.12" y="-773.08" font-family="Arial" font-size="14.00">• ACE + Multi&#45;agent tasks</text>
<text xml:space="preserve" text-anchor="middle" x="415.12" y="-758.08" font-family="Arial" font-size="14.00">• Consensus check</text>
<text xml:space="preserve" text-anchor="middle" x="415.12" y="-743.08" font-family="Arial" font-size="14.00">~18 min, ~$1.30</text>
</g>
<!-- plan&#45;&gt;tasks -->
<g id="edge11" class="edge">
<title>plan&#45;&gt;tasks</title>
<path fill="none" stroke="black" d="M439.09,-901.03C435.91,-885.78 432.38,-868.87 429.12,-853.38 428.67,-851.23 428.21,-849.04 427.75,-846.83"/>
<polygon fill="black" stroke="black" points="431.19,-846.22 425.7,-837.16 424.35,-847.66 431.19,-846.22"/>
<text xml:space="preserve" text-anchor="middle" x="477.95" y="-862.95" font-family="Arial" font-size="14.00">✓ Consensus</text>
</g>
<!-- plan&#45;&gt;tasks -->
<g id="edge24" class="edge">
<title>plan&#45;&gt;tasks</title>
<path fill="none" stroke="orange" stroke-dasharray="5,2" d="M350.87,-908.24C342.29,-901.13 334.75,-892.9 329.12,-883.38 321.15,-869.9 323.97,-856.61 332.28,-844.42"/>
<polygon fill="orange" stroke="orange" points="334.75,-846.92 338.27,-836.93 329.29,-842.55 334.75,-846.92"/>
<text xml:space="preserve" text-anchor="middle" x="377.12" y="-870.08" font-family="Arial" font-size="14.00">Degraded</text>
<text xml:space="preserve" text-anchor="middle" x="377.12" y="-855.08" font-family="Arial" font-size="14.00">(2/3 consensus)</text>
</g>
<!-- plan&#45;&gt;status -->
<g id="edge18" class="edge">
<title>plan&#45;&gt;status</title>
<path fill="none" stroke="black" stroke-dasharray="1,5" d="M511.3,-901.04C516.41,-895.46 521.14,-889.54 525.12,-883.38 549.35,-845.96 554.12,-831.95 554.12,-787.38 554.12,-787.38 554.12,-787.38 554.12,-209.63 554.12,-178.19 540.66,-146.65 525.07,-120.67"/>
<polygon fill="black" stroke="black" points="528.09,-118.9 519.82,-112.28 522.16,-122.62 528.09,-118.9"/>
</g>
<!-- implement -->
<g id="node10" class="node">
<title>implement</title>
<polygon fill="#90caf9" stroke="black" points="462.38,-685.63 255.88,-685.63 255.88,-587.63 462.38,-587.63 462.38,-685.63"/>
<text xml:space="preserve" text-anchor="middle" x="359.12" y="-668.33" font-family="Arial" font-size="14.00">Stage 3: Implement</text>
<text xml:space="preserve" text-anchor="middle" x="359.12" y="-653.33" font-family="Arial" font-size="14.00">• Quality: Analyze (consistency)</text>
<text xml:space="preserve" text-anchor="middle" x="359.12" y="-638.33" font-family="Arial" font-size="14.00">• Guardrail validation</text>
<text xml:space="preserve" text-anchor="middle" x="359.12" y="-623.33" font-family="Arial" font-size="14.00">• ACE + Multi&#45;agent code gen</text>
<text xml:space="preserve" text-anchor="middle" x="359.12" y="-608.33" font-family="Arial" font-size="14.00">• Consensus check</text>
<text xml:space="preserve" text-anchor="middle" x="359.12" y="-593.33" font-family="Arial" font-size="14.00">~23 min, ~$2.30</text>
</g>
<!-- tasks&#45;&gt;implement -->
<g id="edge12" class="edge">
<title>tasks&#45;&gt;implement</title>
<path fill="none" stroke="black" d="M404.01,-737.28C400.92,-726.09 397.26,-714.32 393.12,-703.63 392.22,-701.29 391.25,-698.92 390.24,-696.54"/>
<polygon fill="black" stroke="black" points="393.47,-695.19 386.18,-687.49 387.08,-698.05 393.47,-695.19"/>
<text xml:space="preserve" text-anchor="middle" x="441.27" y="-706.08" font-family="Arial" font-size="14.00">✓ Consensus</text>
</g>
<!-- tasks&#45;&gt;implement -->
<g id="edge25" class="edge">
<title>tasks&#45;&gt;implement</title>
<path fill="none" stroke="orange" stroke-dasharray="5,2" d="M341.77,-737.2C337.09,-731.71 333.01,-725.77 329.88,-719.38 326.4,-712.29 325.57,-704.67 326.45,-697.05"/>
<polygon fill="orange" stroke="orange" points="329.84,-697.92 328.54,-687.41 323,-696.44 329.84,-697.92"/>
<text xml:space="preserve" text-anchor="middle" x="359.5" y="-705.7" font-family="Arial" font-size="14.00">Degraded</text>
</g>
<!-- tasks&#45;&gt;status -->
<g id="edge19" class="edge">
<title>tasks&#45;&gt;status</title>
<path fill="none" stroke="black" stroke-dasharray="1,5" d="M474.24,-737.08C479.34,-731.45 484.08,-725.51 488.12,-719.38 509.26,-687.32 516.12,-676.04 516.12,-637.63 516.12,-637.63 516.12,-637.63 516.12,-209.63 516.12,-181.9 509.94,-152.15 502.57,-126.52"/>
<polygon fill="black" stroke="black" points="506.01,-125.82 499.78,-117.25 499.31,-127.84 506.01,-125.82"/>
</g>
<!-- validate -->
<g id="node11" class="node">
<title>validate</title>
<polygon fill="#90caf9" stroke="black" points="344.88,-535.88 213.38,-535.88 213.38,-452.88 344.88,-452.88 344.88,-535.88"/>
<text xml:space="preserve" text-anchor="middle" x="279.12" y="-518.58" font-family="Arial" font-size="14.00">Stage 4: Validate</text>
<text xml:space="preserve" text-anchor="middle" x="279.12" y="-503.58" font-family="Arial" font-size="14.00">• Test strategy</text>
<text xml:space="preserve" text-anchor="middle" x="279.12" y="-488.58" font-family="Arial" font-size="14.00">• Validation plan</text>
<text xml:space="preserve" text-anchor="middle" x="279.12" y="-473.58" font-family="Arial" font-size="14.00">• Consensus check</text>
<text xml:space="preserve" text-anchor="middle" x="279.12" y="-458.58" font-family="Arial" font-size="14.00">~10 min, ~$1</text>
</g>
<!-- implement&#45;&gt;validate -->
<g id="edge13" class="edge">
<title>implement&#45;&gt;validate</title>
<path fill="none" stroke="black" d="M331.59,-587.36C323.96,-573.97 315.64,-559.4 307.94,-545.89"/>
<polygon fill="black" stroke="black" points="311.19,-544.53 303.2,-537.58 305.11,-548 311.19,-544.53"/>
<text xml:space="preserve" text-anchor="middle" x="361.88" y="-556.33" font-family="Arial" font-size="14.00">✓ Consensus</text>
</g>
<!-- implement&#45;&gt;status -->
<g id="edge20" class="edge">
<title>implement&#45;&gt;status</title>
<path fill="none" stroke="black" stroke-dasharray="1,5" d="M428.69,-587.33C454.73,-563.3 478.12,-531.62 478.12,-495.38 478.12,-495.38 478.12,-495.38 478.12,-209.63 478.12,-183.33 478.12,-154.44 478.12,-129.09"/>
<polygon fill="black" stroke="black" points="481.63,-129.23 478.13,-119.23 474.63,-129.23 481.63,-129.23"/>
</g>
<!-- audit -->
<g id="node12" class="node">
<title>audit</title>
<polygon fill="#90caf9" stroke="black" points="422.5,-401.13 279.75,-401.13 279.75,-318.13 422.5,-318.13 422.5,-401.13"/>
<text xml:space="preserve" text-anchor="middle" x="351.12" y="-383.83" font-family="Arial" font-size="14.00">Stage 5: Audit</text>
<text xml:space="preserve" text-anchor="middle" x="351.12" y="-368.83" font-family="Arial" font-size="14.00">• Compliance checks</text>
<text xml:space="preserve" text-anchor="middle" x="351.12" y="-353.83" font-family="Arial" font-size="14.00">• Security review</text>
<text xml:space="preserve" text-anchor="middle" x="351.12" y="-338.83" font-family="Arial" font-size="14.00">• Consensus check</text>
<text xml:space="preserve" text-anchor="middle" x="351.12" y="-323.83" font-family="Arial" font-size="14.00">~10 min, ~$1</text>
</g>
<!-- validate&#45;&gt;audit -->
<g id="edge14" class="edge">
<title>validate&#45;&gt;audit</title>
<path fill="none" stroke="black" d="M301.31,-452.47C308.43,-439.35 316.39,-424.67 323.83,-410.95"/>
<polygon fill="black" stroke="black" points="326.72,-412.97 328.41,-402.51 320.57,-409.63 326.72,-412.97"/>
<text xml:space="preserve" text-anchor="middle" x="360.03" y="-421.58" font-family="Arial" font-size="14.00">✓ Consensus</text>
</g>
<!-- artifacts -->
<g id="node14" class="node">
<title>artifacts</title>
<polygon fill="#c8e6c9" stroke="black" points="305.88,-107.69 302.88,-111.69 281.88,-111.69 278.88,-107.69 126.38,-107.69 126.38,-9.69 305.88,-9.69 305.88,-107.69"/>
<text xml:space="preserve" text-anchor="middle" x="216.12" y="-90.39" font-family="Arial" font-size="14.00">Artifacts Created</text>
<text xml:space="preserve" text-anchor="middle" x="216.12" y="-75.39" font-family="Arial" font-size="14.00">• docs/SPEC&#45;&lt;ID&gt;&#45;&lt;slug&gt;/</text>
<text xml:space="preserve" text-anchor="middle" x="216.12" y="-60.39" font-family="Arial" font-size="14.00"> &#160;&#45; spec.md, PRD.md</text>
<text xml:space="preserve" text-anchor="middle" x="216.12" y="-45.39" font-family="Arial" font-size="14.00"> &#160;&#45; plan.md, tasks.md</text>
<text xml:space="preserve" text-anchor="middle" x="216.12" y="-30.39" font-family="Arial" font-size="14.00">• SPEC.md updated</text>
<text xml:space="preserve" text-anchor="middle" x="216.12" y="-15.39" font-family="Arial" font-size="14.00">• Evidence telemetry</text>
</g>
<!-- validate&#45;&gt;artifacts -->
<g id="edge26" class="edge">
<title>validate&#45;&gt;artifacts</title>
<path fill="none" stroke="red" stroke-dasharray="5,2" d="M241.28,-452.7C209.94,-415.99 167.82,-358.87 150.38,-300.13 131.98,-238.16 157.43,-166.65 181.83,-117.83"/>
<polygon fill="red" stroke="red" points="184.85,-119.6 186.32,-109.11 178.63,-116.4 184.85,-119.6"/>
<text xml:space="preserve" text-anchor="middle" x="194.25" y="-286.83" font-family="Arial" font-size="14.00">Failed:</text>
<text xml:space="preserve" text-anchor="middle" x="194.25" y="-271.83" font-family="Arial" font-size="14.00">Manual review</text>
</g>
<!-- validate&#45;&gt;status -->
<g id="edge21" class="edge">
<title>validate&#45;&gt;status</title>
<path fill="none" stroke="black" stroke-dasharray="1,5" d="M272.82,-452.58C260.84,-368.58 239.52,-180.4 281.12,-135.38 289.31,-126.53 341.13,-106.78 389.57,-89.67"/>
<polygon fill="black" stroke="black" points="390.45,-93.07 398.73,-86.45 388.13,-86.46 390.45,-93.07"/>
</g>
<!-- unlock -->
<g id="node13" class="node">
<title>unlock</title>
<polygon fill="#90caf9" stroke="black" points="411.88,-252.13 280.38,-252.13 280.38,-169.13 411.88,-169.13 411.88,-252.13"/>
<text xml:space="preserve" text-anchor="middle" x="346.12" y="-234.83" font-family="Arial" font-size="14.00">Stage 6: Unlock</text>
<text xml:space="preserve" text-anchor="middle" x="346.12" y="-219.83" font-family="Arial" font-size="14.00">• Final approval</text>
<text xml:space="preserve" text-anchor="middle" x="346.12" y="-204.83" font-family="Arial" font-size="14.00">• Ready for merge</text>
<text xml:space="preserve" text-anchor="middle" x="346.12" y="-189.83" font-family="Arial" font-size="14.00">• Consensus check</text>
<text xml:space="preserve" text-anchor="middle" x="346.12" y="-174.83" font-family="Arial" font-size="14.00">~10 min, ~$1</text>
</g>
<!-- audit&#45;&gt;unlock -->
<g id="edge15" class="edge">
<title>audit&#45;&gt;unlock</title>
<path fill="none" stroke="black" d="M342.85,-317.84C341.93,-311.92 341.14,-305.89 340.62,-300.13 339.57,-288.28 339.65,-275.51 340.28,-263.47"/>
<polygon fill="black" stroke="black" points="343.76,-263.92 340.94,-253.71 336.78,-263.45 343.76,-263.92"/>
<text xml:space="preserve" text-anchor="middle" x="383.38" y="-279.7" font-family="Arial" font-size="14.00">✓ Consensus</text>
</g>
<!-- audit&#45;&gt;status -->
<g id="edge22" class="edge">
<title>audit&#45;&gt;status</title>
<path fill="none" stroke="black" stroke-dasharray="1,5" d="M411.93,-317.74C417.29,-312.31 422.17,-306.42 426.12,-300.13 430.76,-292.74 450.67,-196.83 464.46,-128.4"/>
<polygon fill="black" stroke="black" points="467.86,-129.23 466.4,-118.74 461,-127.85 467.86,-129.23"/>
</g>
<!-- unlock&#45;&gt;artifacts -->
<g id="edge16" class="edge">
<title>unlock&#45;&gt;artifacts</title>
<path fill="none" stroke="black" d="M310.6,-168.66C296.65,-152.56 280.39,-133.82 265.34,-116.45"/>
<polygon fill="black" stroke="black" points="268.25,-114.47 259.05,-109.2 262.96,-119.05 268.25,-114.47"/>
<text xml:space="preserve" text-anchor="middle" x="331.02" y="-137.83" font-family="Arial" font-size="14.00">✓ Complete</text>
</g>
<!-- unlock&#45;&gt;status -->
<g id="edge23" class="edge">
<title>unlock&#45;&gt;status</title>
<path fill="none" stroke="black" stroke-dasharray="1,5" d="M382.19,-168.66C395.97,-153.01 411.95,-134.85 426.88,-117.9"/>
<polygon fill="black" stroke="black" points="429.12,-120.65 433.1,-110.83 423.87,-116.02 429.12,-120.65"/>
</g>
<!-- leg_cmd -->
<g id="node16" class="node">
<title>leg_cmd</title>
<ellipse fill="#e3f2fd" stroke="black" cx="751.12" cy="-1495.38" rx="72.79" ry="18"/>
<text xml:space="preserve" text-anchor="middle" x="751.12" y="-1489.58" font-family="Arial" font-size="14.00">User Command</text>
</g>
<!-- leg_stage -->
<g id="node17" class="node">
<title>leg_stage</title>
<polygon fill="#90caf9" stroke="black" points="802.62,-1424.38 699.62,-1424.38 699.62,-1388.38 802.62,-1388.38 802.62,-1424.38"/>
<text xml:space="preserve" text-anchor="middle" x="751.12" y="-1400.58" font-family="Arial" font-size="14.00">Pipeline Stage</text>
</g>
<!-- leg_cmd&#45;&gt;leg_stage -->
<!-- leg_output -->
<g id="node18" class="node">
<title>leg_output</title>
<polygon fill="#c8e6c9" stroke="black" points="803,-1301.38 800,-1305.38 779,-1305.38 776,-1301.38 699.25,-1301.38 699.25,-1265.38 803,-1265.38 803,-1301.38"/>
<text xml:space="preserve" text-anchor="middle" x="751.12" y="-1277.58" font-family="Arial" font-size="14.00">Output/Artifact</text>
</g>
<!-- leg_stage&#45;&gt;leg_output -->
<!-- leg_optional -->
<g id="node19" class="node">
<title>leg_optional</title>
<polygon fill="#c5e1a5" stroke="black" points="800.38,-1185.88 701.88,-1185.88 701.88,-1149.88 800.38,-1149.88 800.38,-1185.88"/>
<text xml:space="preserve" text-anchor="middle" x="751.12" y="-1162.08" font-family="Arial" font-size="14.00">Optional Step</text>
</g>
<!-- leg_output&#45;&gt;leg_optional -->
</g>
</svg>
