<?xml version="1.0" encoding="UTF-8" standalone="no"?>
<!DOCTYPE svg PUBLIC "-//W3C//DTD SVG 1.1//EN"
 "http://www.w3.org/Graphics/SVG/1.1/DTD/svg11.dtd">
<!-- Generated by graphviz version 14.0.2 (0)
 -->
<!-- Title: spec_kit_filesystem Pages: 1 -->
<svg width="1016pt" height="1577pt"
 viewBox="0.00 0.00 1016.00 1577.00" xmlns="http://www.w3.org/2000/svg" xmlns:xlink="http://www.w3.org/1999/xlink">
<g id="graph0" class="graph" transform="scale(1 1) rotate(0) translate(4 1573)">
<title>spec_kit_filesystem</title>
<polygon fill="white" stroke="none" points="-4,4 -4,-1573 1011.5,-1573 1011.5,4 -4,4"/>
<text xml:space="preserve" text-anchor="middle" x="503.75" y="-1551.7" font-family="Arial" font-size="14.00">Spec&#45;Kit File System Artifacts</text>
<text xml:space="preserve" text-anchor="middle" x="503.75" y="-1536.7" font-family="Arial" font-size="14.00">Where Everything Lives</text>
<g id="clust1" class="cluster">
<title>cluster_spec_artifacts</title>
<polygon fill="#e1f5fe" stroke="black" points="759,-616 759,-938 999.5,-938 999.5,-616 759,-616"/>
<text xml:space="preserve" text-anchor="middle" x="879.25" y="-920.7" font-family="Arial" font-size="14.00">SPEC Artifacts (Created by Stages)</text>
</g>
<g id="clust2" class="cluster">
<title>cluster_evidence</title>
<polygon fill="#e8f5e9" stroke="black" points="766.5,-313 766.5,-608 992,-608 992,-313 766.5,-313"/>
<text xml:space="preserve" text-anchor="middle" x="879.25" y="-590.7" font-family="Arial" font-size="14.00">Evidence Repository</text>
</g>
<g id="clust3" class="cluster">
<title>cluster_templates</title>
<polygon fill="#fce4ec" stroke="black" points="454.62,-8 454.62,-187 689.12,-187 689.12,-8 454.62,-8"/>
<text xml:space="preserve" text-anchor="middle" x="571.88" y="-169.7" font-family="Arial" font-size="14.00">Template System</text>
</g>
<g id="clust4" class="cluster">
<title>cluster_prompts</title>
<polygon fill="#f3e5f5" stroke="black" points="790.12,-946 790.12,-1394 968.38,-1394 968.38,-946 790.12,-946"/>
<text xml:space="preserve" text-anchor="middle" x="879.25" y="-1376.7" font-family="Arial" font-size="14.00">Stage Prompts</text>
</g>
<g id="clust5" class="cluster">
<title>cluster_scripts</title>
<polygon fill="#e0f2f1" stroke="black" points="468.88,-195 468.88,-516 674.88,-516 674.88,-195 468.88,-195"/>
<text xml:space="preserve" text-anchor="middle" x="571.88" y="-498.7" font-family="Arial" font-size="14.00">Guardrail Scripts</text>
</g>
<g id="clust6" class="cluster">
<title>cluster_legend</title>
<polygon fill="#f5f5f5" stroke="black" points="8,-1448 8,-1523 928.25,-1523 928.25,-1448 8,-1448"/>
<text xml:space="preserve" text-anchor="middle" x="468.12" y="-1505.7" font-family="Arial" font-size="14.00">File Types</text>
</g>
<!-- root -->
<g id="node1" class="node">
<title>root</title>
<polygon fill="#e3f2fd" stroke="black" stroke-width="2" points="107.25,-370 104.25,-374 83.25,-374 80.25,-370 53.25,-370 53.25,-334 107.25,-334 107.25,-370"/>
<text xml:space="preserve" text-anchor="middle" x="80.25" y="-346.2" font-family="Arial" font-size="14.00">/</text>
</g>
<!-- docs -->
<g id="node2" class="node">
<title>docs</title>
<polygon fill="#bbdefb" stroke="black" points="337,-728 334,-732 313,-732 310,-728 283,-728 283,-692 337,-692 337,-728"/>
<text xml:space="preserve" text-anchor="middle" x="310" y="-704.2" font-family="Arial" font-size="14.00">docs/</text>
</g>
<!-- root&#45;&gt;docs -->
<g id="edge1" class="edge">
<title>root&#45;&gt;docs</title>
<path fill="none" stroke="black" d="M92.86,-370.25C130.09,-428.78 246.72,-612.1 291.37,-682.29"/>
<polygon fill="black" stroke="black" points="288.28,-683.96 296.6,-690.51 294.19,-680.2 288.28,-683.96"/>
</g>
<!-- templates -->
<g id="node14" class="node">
<title>templates</title>
<polygon fill="#f8bbd0" stroke="black" points="360.38,-148 357.38,-152 336.38,-152 333.38,-148 259.62,-148 259.62,-110 360.38,-110 360.38,-148"/>
<text xml:space="preserve" text-anchor="middle" x="310" y="-130.7" font-family="Arial" font-size="14.00">Templates</text>
<text xml:space="preserve" text-anchor="middle" x="310" y="-115.7" font-family="Arial" font-size="14.00">(In Rust code)</text>
</g>
<!-- root&#45;&gt;templates -->
<g id="edge2" class="edge">
<title>root&#45;&gt;templates</title>
<path fill="none" stroke="black" d="M99.89,-333.75C139.88,-294.6 234.08,-202.35 281.18,-156.24"/>
<polygon fill="black" stroke="black" points="283.35,-159.01 288.05,-149.51 278.46,-154.01 283.35,-159.01"/>
</g>
<!-- scripts -->
<g id="node24" class="node">
<title>scripts</title>
<polygon fill="#b2dfdb" stroke="black" points="385.12,-370 382.12,-374 361.12,-374 358.12,-370 234.88,-370 234.88,-334 385.12,-334 385.12,-370"/>
<text xml:space="preserve" text-anchor="middle" x="310" y="-346.2" font-family="Arial" font-size="14.00">scripts/spec_ops_004/</text>
</g>
<!-- root&#45;&gt;scripts -->
<g id="edge3" class="edge">
<title>root&#45;&gt;scripts</title>
<path fill="none" stroke="black" d="M107.38,-352C135.57,-352 181.98,-352 223.16,-352"/>
<polygon fill="black" stroke="black" points="223.11,-355.5 233.11,-352 223.11,-348.5 223.11,-355.5"/>
</g>
<!-- spec_dir -->
<g id="node3" class="node">
<title>spec_dir</title>
<polygon fill="#90caf9" stroke="black" points="666.88,-776 663.88,-780 642.88,-780 639.88,-776 476.88,-776 476.88,-738 666.88,-738 666.88,-776"/>
<text xml:space="preserve" text-anchor="middle" x="571.88" y="-758.7" font-family="Arial" font-size="14.00">SPEC&#45;&lt;ID&gt;&#45;&lt;slug&gt;/</text>
<text xml:space="preserve" text-anchor="middle" x="571.88" y="-743.7" font-family="Arial" font-size="14.00">e.g., SPEC&#45;KIT&#45;069&#45;validate/</text>
</g>
<!-- docs&#45;&gt;spec_dir -->
<g id="edge5" class="edge">
<title>docs&#45;&gt;spec_dir</title>
<path fill="none" stroke="black" d="M337.35,-714.77C367.45,-720.21 418.61,-729.46 465.38,-737.92"/>
<polygon fill="black" stroke="black" points="464.58,-741.33 475.04,-739.67 465.82,-734.44 464.58,-741.33"/>
</g>
<!-- spec_tracker -->
<g id="node8" class="node">
<title>spec_tracker</title>
<polygon fill="#ffe082" stroke="black" stroke-width="2" points="659,-720 478.75,-720 478.75,-652 665,-652 665,-714 659,-720"/>
<polyline fill="none" stroke="black" stroke-width="2" points="659,-720 659,-714"/>
<polyline fill="none" stroke="black" stroke-width="2" points="665,-714 659,-714"/>
<text xml:space="preserve" text-anchor="middle" x="571.88" y="-702.7" font-family="Arial" font-size="14.00">SPEC.md</text>
<text xml:space="preserve" text-anchor="middle" x="571.88" y="-687.7" font-family="Arial" font-size="14.00">• Single source of truth</text>
<text xml:space="preserve" text-anchor="middle" x="571.88" y="-672.7" font-family="Arial" font-size="14.00">• Task tracking table</text>
<text xml:space="preserve" text-anchor="middle" x="571.88" y="-657.7" font-family="Arial" font-size="14.00">• One &#39;In Progress&#39; at a time</text>
</g>
<!-- docs&#45;&gt;spec_tracker -->
<g id="edge4" class="edge">
<title>docs&#45;&gt;spec_tracker</title>
<path fill="none" stroke="black" d="M337.35,-707.57C367.81,-704.75 419.83,-699.95 467.05,-695.59"/>
<polygon fill="black" stroke="black" points="467.16,-699.09 476.79,-694.69 466.51,-692.12 467.16,-699.09"/>
</g>
<!-- evidence_root -->
<g id="node9" class="node">
<title>evidence_root</title>
<polygon fill="#c8e6c9" stroke="black" points="702.5,-562 699.5,-566 678.5,-566 675.5,-562 441.25,-562 441.25,-524 702.5,-524 702.5,-562"/>
<text xml:space="preserve" text-anchor="middle" x="571.88" y="-544.7" font-family="Arial" font-size="14.00">SPEC&#45;OPS&#45;004&#45;integrated&#45;coder&#45;hooks/</text>
<text xml:space="preserve" text-anchor="middle" x="571.88" y="-529.7" font-family="Arial" font-size="14.00">evidence/</text>
</g>
<!-- docs&#45;&gt;evidence_root -->
<g id="edge6" class="edge">
<title>docs&#45;&gt;evidence_root</title>
<path fill="none" stroke="black" d="M322.56,-691.79C342.74,-661.6 387.44,-601.48 441.25,-571 443.75,-569.59 446.31,-568.24 448.92,-566.97"/>
<polygon fill="black" stroke="black" points="450.14,-570.25 457.86,-562.99 447.3,-563.86 450.14,-570.25"/>
</g>
<!-- cost_dir -->
<g id="node13" class="node">
<title>cost_dir</title>
<polygon fill="#fff59d" stroke="black" points="668,-1333 665,-1337 644,-1337 641,-1333 475.75,-1333 475.75,-1265 668,-1265 668,-1333"/>
<text xml:space="preserve" text-anchor="middle" x="571.88" y="-1315.7" font-family="Arial" font-size="14.00">cost&#45;summaries/&lt;SPEC&#45;ID&gt;/</text>
<text xml:space="preserve" text-anchor="middle" x="571.88" y="-1300.7" font-family="Arial" font-size="14.00">• Per&#45;stage costs</text>
<text xml:space="preserve" text-anchor="middle" x="571.88" y="-1285.7" font-family="Arial" font-size="14.00">• Agent usage</text>
<text xml:space="preserve" text-anchor="middle" x="571.88" y="-1270.7" font-family="Arial" font-size="14.00">• Routing notes</text>
</g>
<!-- docs&#45;&gt;cost_dir -->
<g id="edge7" class="edge">
<title>docs&#45;&gt;cost_dir</title>
<path fill="none" stroke="black" d="M316.17,-728.3C339.04,-809.18 430.48,-1131.44 441.25,-1151 463.14,-1190.76 497.23,-1229.12 524.96,-1256.82"/>
<polygon fill="black" stroke="black" points="522.3,-1259.12 531.89,-1263.64 527.22,-1254.13 522.3,-1259.12"/>
</g>
<!-- prompts -->
<g id="node17" class="node">
<title>prompts</title>
<polygon fill="#ce93d8" stroke="black" stroke-width="2" points="654.5,-1142 483.25,-1142 483.25,-1104 660.5,-1104 660.5,-1136 654.5,-1142"/>
<polyline fill="none" stroke="black" stroke-width="2" points="654.5,-1142 654.5,-1136"/>
<polyline fill="none" stroke="black" stroke-width="2" points="660.5,-1136 654.5,-1136"/>
<text xml:space="preserve" text-anchor="middle" x="571.88" y="-1124.7" font-family="Arial" font-size="14.00">Prompts</text>
<text xml:space="preserve" text-anchor="middle" x="571.88" y="-1109.7" font-family="Arial" font-size="14.00">docs/spec&#45;kit/prompts.json</text>
</g>
<!-- docs&#45;&gt;prompts -->
<g id="edge17" class="edge">
<title>docs&#45;&gt;prompts</title>
<path fill="none" stroke="black" stroke-dasharray="5,2" d="M322.5,-728.28C363.48,-793.4 502.56,-1014.44 552.68,-1094.09"/>
<polygon fill="black" stroke="black" points="549.52,-1095.63 557.81,-1102.23 555.44,-1091.9 549.52,-1095.63"/>
</g>
<!-- spec_md -->
<g id="node4" class="node">
<title>spec_md</title>
<polygon fill="#81d4fa" stroke="black" points="985.5,-748.5 767,-748.5 767,-695.5 991.5,-695.5 991.5,-742.5 985.5,-748.5"/>
<polyline fill="none" stroke="black" points="985.5,-748.5 985.5,-742.5"/>
<polyline fill="none" stroke="black" points="991.5,-742.5 985.5,-742.5"/>
<text xml:space="preserve" text-anchor="middle" x="879.25" y="-731.2" font-family="Arial" font-size="14.00">spec.md</text>
<text xml:space="preserve" text-anchor="middle" x="879.25" y="-716.2" font-family="Arial" font-size="14.00">• Template applied by /speckit.new</text>
<text xml:space="preserve" text-anchor="middle" x="879.25" y="-701.2" font-family="Arial" font-size="14.00">• Core specification</text>
</g>
<!-- spec_dir&#45;&gt;spec_md -->
<g id="edge8" class="edge">
<title>spec_dir&#45;&gt;spec_md</title>
<path fill="none" stroke="black" d="M666.99,-746.21C694.96,-743.01 726.02,-739.45 755.53,-736.07"/>
<polygon fill="black" stroke="black" points="755.71,-739.57 765.25,-734.95 754.92,-732.61 755.71,-739.57"/>
</g>
<!-- prd_md -->
<g id="node5" class="node">
<title>prd_md</title>
<polygon fill="#81d4fa" stroke="black" points="966.75,-677.5 785.75,-677.5 785.75,-624.5 972.75,-624.5 972.75,-671.5 966.75,-677.5"/>
<polyline fill="none" stroke="black" points="966.75,-677.5 966.75,-671.5"/>
<polyline fill="none" stroke="black" points="972.75,-671.5 966.75,-671.5"/>
<text xml:space="preserve" text-anchor="middle" x="879.25" y="-660.2" font-family="Arial" font-size="14.00">PRD.md</text>
<text xml:space="preserve" text-anchor="middle" x="879.25" y="-645.2" font-family="Arial" font-size="14.00">• Created by /speckit.specify</text>
<text xml:space="preserve" text-anchor="middle" x="879.25" y="-630.2" font-family="Arial" font-size="14.00">• Product requirements</text>
</g>
<!-- spec_dir&#45;&gt;prd_md -->
<g id="edge9" class="edge">
<title>spec_dir&#45;&gt;prd_md</title>
<path fill="none" stroke="black" d="M667.17,-741.62C679.32,-738.2 691.39,-734.04 702.5,-729 730.99,-716.07 731.05,-701.06 759,-687 764.12,-684.42 769.46,-681.99 774.92,-679.71"/>
<polygon fill="black" stroke="black" points="776.12,-683 784.12,-676.05 773.54,-676.49 776.12,-683"/>
</g>
<!-- plan_md -->
<g id="node6" class="node">
<title>plan_md</title>
<polygon fill="#81d4fa" stroke="black" points="958.12,-906.5 794.38,-906.5 794.38,-853.5 964.12,-853.5 964.12,-900.5 958.12,-906.5"/>
<polyline fill="none" stroke="black" points="958.12,-906.5 958.12,-900.5"/>
<polyline fill="none" stroke="black" points="964.12,-900.5 958.12,-900.5"/>
<text xml:space="preserve" text-anchor="middle" x="879.25" y="-889.2" font-family="Arial" font-size="14.00">plan.md</text>
<text xml:space="preserve" text-anchor="middle" x="879.25" y="-874.2" font-family="Arial" font-size="14.00">• Created by /speckit.plan</text>
<text xml:space="preserve" text-anchor="middle" x="879.25" y="-859.2" font-family="Arial" font-size="14.00">• Work breakdown</text>
</g>
<!-- spec_dir&#45;&gt;plan_md -->
<g id="edge10" class="edge">
<title>spec_dir&#45;&gt;plan_md</title>
<path fill="none" stroke="black" d="M610.32,-776.46C647.43,-795.27 706.19,-823.81 759,-844 766.8,-846.98 774.95,-849.88 783.18,-852.66"/>
<polygon fill="black" stroke="black" points="781.98,-855.95 792.58,-855.76 784.18,-849.3 781.98,-855.95"/>
</g>
<!-- tasks_md -->
<g id="node7" class="node">
<title>tasks_md</title>
<polygon fill="#81d4fa" stroke="black" points="961.12,-835 791.38,-835 791.38,-767 967.12,-767 967.12,-829 961.12,-835"/>
<polyline fill="none" stroke="black" points="961.12,-835 961.12,-829"/>
<polyline fill="none" stroke="black" points="967.12,-829 961.12,-829"/>
<text xml:space="preserve" text-anchor="middle" x="879.25" y="-817.7" font-family="Arial" font-size="14.00">tasks.md</text>
<text xml:space="preserve" text-anchor="middle" x="879.25" y="-802.7" font-family="Arial" font-size="14.00">• Created by /speckit.tasks</text>
<text xml:space="preserve" text-anchor="middle" x="879.25" y="-787.7" font-family="Arial" font-size="14.00">• Task decomposition</text>
<text xml:space="preserve" text-anchor="middle" x="879.25" y="-772.7" font-family="Arial" font-size="14.00">• Mirrors SPEC.md</text>
</g>
<!-- spec_dir&#45;&gt;tasks_md -->
<g id="edge11" class="edge">
<title>spec_dir&#45;&gt;tasks_md</title>
<path fill="none" stroke="black" d="M666.99,-770.56C702.8,-775.72 743.68,-781.61 779.88,-786.83"/>
<polygon fill="black" stroke="black" points="779.06,-790.24 789.46,-788.21 780.06,-783.32 779.06,-790.24"/>
</g>
<!-- cmd_evidence -->
<g id="node10" class="node">
<title>cmd_evidence</title>
<polygon fill="#a5d6a7" stroke="black" points="984,-404.5 981,-408.5 960,-408.5 957,-404.5 774.5,-404.5 774.5,-321.5 984,-321.5 984,-404.5"/>
<text xml:space="preserve" text-anchor="middle" x="879.25" y="-387.2" font-family="Arial" font-size="14.00">commands/&lt;SPEC&#45;ID&gt;/</text>
<text xml:space="preserve" text-anchor="middle" x="879.25" y="-372.2" font-family="Arial" font-size="14.00">• Guardrail telemetry</text>
<text xml:space="preserve" text-anchor="middle" x="879.25" y="-357.2" font-family="Arial" font-size="14.00">• &lt;SPEC&#45;ID&gt;_spec&#45;plan_*.json</text>
<text xml:space="preserve" text-anchor="middle" x="879.25" y="-342.2" font-family="Arial" font-size="14.00">• &lt;SPEC&#45;ID&gt;_spec&#45;tasks_*.json</text>
<text xml:space="preserve" text-anchor="middle" x="879.25" y="-327.2" font-family="Arial" font-size="14.00">• HAL validation results</text>
</g>
<!-- evidence_root&#45;&gt;cmd_evidence -->
<g id="edge12" class="edge">
<title>evidence_root&#45;&gt;cmd_evidence</title>
<path fill="none" stroke="black" d="M697.09,-523.64C698.94,-522.49 700.74,-521.28 702.5,-520 724.09,-504.31 739.34,-432.05 759,-414 760.89,-412.27 762.84,-410.59 764.85,-408.96"/>
<polygon fill="black" stroke="black" points="766.86,-411.83 772.81,-403.06 762.69,-406.21 766.86,-411.83"/>
</g>
<!-- consensus_evidence -->
<g id="node11" class="node">
<title>consensus_evidence</title>
<polygon fill="#a5d6a7" stroke="black" points="959.25,-577 956.25,-581 935.25,-581 932.25,-577 799.25,-577 799.25,-509 959.25,-509 959.25,-577"/>
<text xml:space="preserve" text-anchor="middle" x="879.25" y="-559.7" font-family="Arial" font-size="14.00">consensus/&lt;SPEC&#45;ID&gt;/</text>
<text xml:space="preserve" text-anchor="middle" x="879.25" y="-544.7" font-family="Arial" font-size="14.00">• Agent artifacts</text>
<text xml:space="preserve" text-anchor="middle" x="879.25" y="-529.7" font-family="Arial" font-size="14.00">• Synthesis results</text>
<text xml:space="preserve" text-anchor="middle" x="879.25" y="-514.7" font-family="Arial" font-size="14.00">• Conflict records</text>
</g>
<!-- evidence_root&#45;&gt;consensus_evidence -->
<g id="edge13" class="edge">
<title>evidence_root&#45;&gt;consensus_evidence</title>
<path fill="none" stroke="black" d="M702.82,-543C731.37,-543 761.01,-543 787.62,-543"/>
<polygon fill="black" stroke="black" points="787.31,-546.5 797.31,-543 787.31,-539.5 787.31,-546.5"/>
</g>
<!-- archive_evidence -->
<g id="node12" class="node">
<title>archive_evidence</title>
<polygon fill="#81c784" stroke="black" points="934.5,-491 931.5,-495 910.5,-495 907.5,-491 824,-491 824,-423 934.5,-423 934.5,-491"/>
<text xml:space="preserve" text-anchor="middle" x="879.25" y="-473.7" font-family="Arial" font-size="14.00">archive/</text>
<text xml:space="preserve" text-anchor="middle" x="879.25" y="-458.7" font-family="Arial" font-size="14.00">• Baselines</text>
<text xml:space="preserve" text-anchor="middle" x="879.25" y="-443.7" font-family="Arial" font-size="14.00">• Old telemetry</text>
<text xml:space="preserve" text-anchor="middle" x="879.25" y="-428.7" font-family="Arial" font-size="14.00">• Historical runs</text>
</g>
<!-- evidence_root&#45;&gt;archive_evidence -->
<g id="edge14" class="edge">
<title>evidence_root&#45;&gt;archive_evidence</title>
<path fill="none" stroke="black" d="M688.3,-523.56C693.11,-522.42 697.86,-521.23 702.5,-520 705.42,-519.22 764.53,-497.99 813.4,-480.39"/>
<polygon fill="black" stroke="black" points="814.32,-483.78 822.54,-477.1 811.94,-477.19 814.32,-483.78"/>
</g>
<!-- filesystem -->
<g id="node32" class="node">
<title>filesystem</title>
<path fill="none" stroke="black" d="M905.62,-1438C905.62,-1438 852.88,-1438 852.88,-1438 846.88,-1438 840.88,-1432 840.88,-1426 840.88,-1426 840.88,-1414 840.88,-1414 840.88,-1408 846.88,-1402 852.88,-1402 852.88,-1402 905.62,-1402 905.62,-1402 911.62,-1402 917.62,-1408 917.62,-1414 917.62,-1414 917.62,-1426 917.62,-1426 917.62,-1432 911.62,-1438 905.62,-1438"/>
<text xml:space="preserve" text-anchor="middle" x="879.25" y="-1414.2" font-family="Arial" font-size="14.00">filesystem</text>
</g>
<!-- cost_dir&#45;&gt;filesystem -->
<!-- spec_template -->
<g id="node15" class="node">
<title>spec_template</title>
<polygon fill="#f48fb1" stroke="black" points="675.12,-84 462.62,-84 462.62,-16 681.12,-16 681.12,-78 675.12,-84"/>
<polyline fill="none" stroke="black" points="675.12,-84 675.12,-78"/>
<polyline fill="none" stroke="black" points="681.12,-78 675.12,-78"/>
<text xml:space="preserve" text-anchor="middle" x="571.88" y="-66.7" font-family="Arial" font-size="14.00">spec.md template</text>
<text xml:space="preserve" text-anchor="middle" x="571.88" y="-51.7" font-family="Arial" font-size="14.00">codex&#45;rs/tui/src/spec_prompts.rs</text>
<text xml:space="preserve" text-anchor="middle" x="571.88" y="-36.7" font-family="Arial" font-size="14.00">• SPEC_TEMPLATE constant</text>
<text xml:space="preserve" text-anchor="middle" x="571.88" y="-21.7" font-family="Arial" font-size="14.00">• Variables: SPEC_ID, description</text>
</g>
<!-- templates&#45;&gt;spec_template -->
<g id="edge15" class="edge">
<title>templates&#45;&gt;spec_template</title>
<path fill="none" stroke="black" d="M360.8,-113.86C386.69,-105.99 419.53,-96.01 451.52,-86.28"/>
<polygon fill="black" stroke="black" points="452.33,-89.7 460.88,-83.44 450.29,-83 452.33,-89.7"/>
</g>
<!-- prd_template -->
<g id="node16" class="node">
<title>prd_template</title>
<polygon fill="#f48fb1" stroke="black" points="653,-155.5 484.75,-155.5 484.75,-102.5 659,-102.5 659,-149.5 653,-155.5"/>
<polyline fill="none" stroke="black" points="653,-155.5 653,-149.5"/>
<polyline fill="none" stroke="black" points="659,-149.5 653,-149.5"/>
<text xml:space="preserve" text-anchor="middle" x="571.88" y="-138.2" font-family="Arial" font-size="14.00">PRD.md template</text>
<text xml:space="preserve" text-anchor="middle" x="571.88" y="-123.2" font-family="Arial" font-size="14.00">• Created by specify stage</text>
<text xml:space="preserve" text-anchor="middle" x="571.88" y="-108.2" font-family="Arial" font-size="14.00">• Multi&#45;agent consensus</text>
</g>
<!-- templates&#45;&gt;prd_template -->
<g id="edge16" class="edge">
<title>templates&#45;&gt;prd_template</title>
<path fill="none" stroke="black" d="M360.8,-129C392.59,-129 434.88,-129 473.18,-129"/>
<polygon fill="black" stroke="black" points="472.88,-132.5 482.88,-129 472.88,-125.5 472.88,-132.5"/>
</g>
<!-- prompt_new -->
<g id="node18" class="node">
<title>prompt_new</title>
<polygon fill="#e1bee7" stroke="black" points="954.38,-1078.5 798.12,-1078.5 798.12,-1025.5 960.38,-1025.5 960.38,-1072.5 954.38,-1078.5"/>
<polyline fill="none" stroke="black" points="954.38,-1078.5 954.38,-1072.5"/>
<polyline fill="none" stroke="black" points="960.38,-1072.5 954.38,-1072.5"/>
<text xml:space="preserve" text-anchor="middle" x="879.25" y="-1061.2" font-family="Arial" font-size="14.00">new_spec</text>
<text xml:space="preserve" text-anchor="middle" x="879.25" y="-1046.2" font-family="Arial" font-size="14.00">• Create SPEC structure</text>
<text xml:space="preserve" text-anchor="middle" x="879.25" y="-1031.2" font-family="Arial" font-size="14.00">• Generate initial docs</text>
</g>
<!-- prompts&#45;&gt;prompt_new -->
<g id="edge18" class="edge">
<title>prompts&#45;&gt;prompt_new</title>
<path fill="none" stroke="black" d="M656.72,-1103.51C697,-1094.14 745.35,-1082.9 786.59,-1073.31"/>
<polygon fill="black" stroke="black" points="787.33,-1076.73 796.27,-1071.06 785.74,-1069.92 787.33,-1076.73"/>
</g>
<!-- prompt_specify -->
<g id="node19" class="node">
<title>prompt_specify</title>
<polygon fill="#e1bee7" stroke="black" points="954.38,-1007.5 798.12,-1007.5 798.12,-954.5 960.38,-954.5 960.38,-1001.5 954.38,-1007.5"/>
<polyline fill="none" stroke="black" points="954.38,-1007.5 954.38,-1001.5"/>
<polyline fill="none" stroke="black" points="960.38,-1001.5 954.38,-1001.5"/>
<text xml:space="preserve" text-anchor="middle" x="879.25" y="-990.2" font-family="Arial" font-size="14.00">specify</text>
<text xml:space="preserve" text-anchor="middle" x="879.25" y="-975.2" font-family="Arial" font-size="14.00">• Draft PRD</text>
<text xml:space="preserve" text-anchor="middle" x="879.25" y="-960.2" font-family="Arial" font-size="14.00">• Requirements analysis</text>
</g>
<!-- prompts&#45;&gt;prompt_specify -->
<g id="edge19" class="edge">
<title>prompts&#45;&gt;prompt_specify</title>
<path fill="none" stroke="black" d="M602.11,-1103.59C637.89,-1080.5 700.91,-1041.93 759,-1017 767.95,-1013.16 777.45,-1009.55 787.01,-1006.22"/>
<polygon fill="black" stroke="black" points="788.03,-1009.57 796.39,-1003.06 785.79,-1002.94 788.03,-1009.57"/>
</g>
<!-- prompt_plan -->
<g id="node20" class="node">
<title>prompt_plan</title>
<polygon fill="#e1bee7" stroke="black" points="936.38,-1362.5 816.12,-1362.5 816.12,-1309.5 942.38,-1309.5 942.38,-1356.5 936.38,-1362.5"/>
<polyline fill="none" stroke="black" points="936.38,-1362.5 936.38,-1356.5"/>
<polyline fill="none" stroke="black" points="942.38,-1356.5 936.38,-1356.5"/>
<text xml:space="preserve" text-anchor="middle" x="879.25" y="-1345.2" font-family="Arial" font-size="14.00">plan</text>
<text xml:space="preserve" text-anchor="middle" x="879.25" y="-1330.2" font-family="Arial" font-size="14.00">• Work breakdown</text>
<text xml:space="preserve" text-anchor="middle" x="879.25" y="-1315.2" font-family="Arial" font-size="14.00">• Risk analysis</text>
</g>
<!-- prompts&#45;&gt;prompt_plan -->
<g id="edge20" class="edge">
<title>prompts&#45;&gt;prompt_plan</title>
<path fill="none" stroke="black" d="M590.72,-1142.23C629.38,-1183.52 720.49,-1278.73 759,-1301 773.11,-1309.16 789.29,-1315.55 805.07,-1320.51"/>
<polygon fill="black" stroke="black" points="803.87,-1323.81 814.45,-1323.29 805.86,-1317.09 803.87,-1323.81"/>
</g>
<!-- prompt_tasks -->
<g id="node21" class="node">
<title>prompt_tasks</title>
<polygon fill="#e1bee7" stroke="black" points="945.75,-1291.5 806.75,-1291.5 806.75,-1238.5 951.75,-1238.5 951.75,-1285.5 945.75,-1291.5"/>
<polyline fill="none" stroke="black" points="945.75,-1291.5 945.75,-1285.5"/>
<polyline fill="none" stroke="black" points="951.75,-1285.5 945.75,-1285.5"/>
<text xml:space="preserve" text-anchor="middle" x="879.25" y="-1274.2" font-family="Arial" font-size="14.00">tasks</text>
<text xml:space="preserve" text-anchor="middle" x="879.25" y="-1259.2" font-family="Arial" font-size="14.00">• Task decomposition</text>
<text xml:space="preserve" text-anchor="middle" x="879.25" y="-1244.2" font-family="Arial" font-size="14.00">• Update SPEC.md</text>
</g>
<!-- prompts&#45;&gt;prompt_tasks -->
<g id="edge21" class="edge">
<title>prompts&#45;&gt;prompt_tasks</title>
<path fill="none" stroke="black" d="M601.73,-1142.48C637.4,-1165.87 700.56,-1205.04 759,-1230 770.59,-1234.95 783.09,-1239.46 795.5,-1243.48"/>
<polygon fill="black" stroke="black" points="794.31,-1246.77 804.9,-1246.43 796.4,-1240.09 794.31,-1246.77"/>
</g>
<!-- prompt_implement -->
<g id="node22" class="node">
<title>prompt_implement</title>
<polygon fill="#e1bee7" stroke="black" points="937.5,-1220.5 815,-1220.5 815,-1167.5 943.5,-1167.5 943.5,-1214.5 937.5,-1220.5"/>
<polyline fill="none" stroke="black" points="937.5,-1220.5 937.5,-1214.5"/>
<polyline fill="none" stroke="black" points="943.5,-1214.5 937.5,-1214.5"/>
<text xml:space="preserve" text-anchor="middle" x="879.25" y="-1203.2" font-family="Arial" font-size="14.00">implement</text>
<text xml:space="preserve" text-anchor="middle" x="879.25" y="-1188.2" font-family="Arial" font-size="14.00">• Code generation</text>
<text xml:space="preserve" text-anchor="middle" x="879.25" y="-1173.2" font-family="Arial" font-size="14.00">• Quality validation</text>
</g>
<!-- prompts&#45;&gt;prompt_implement -->
<g id="edge22" class="edge">
<title>prompts&#45;&gt;prompt_implement</title>
<path fill="none" stroke="black" d="M656.72,-1142.49C702.79,-1153.21 759.43,-1166.37 803.9,-1176.71"/>
<polygon fill="black" stroke="black" points="802.93,-1180.08 813.46,-1178.94 804.51,-1173.26 802.93,-1180.08"/>
</g>
<!-- prompt_validate -->
<g id="node23" class="node">
<title>prompt_validate</title>
<polygon fill="#e1bee7" stroke="black" points="929.62,-1149.5 822.88,-1149.5 822.88,-1096.5 935.62,-1096.5 935.62,-1143.5 929.62,-1149.5"/>
<polyline fill="none" stroke="black" points="929.62,-1149.5 929.62,-1143.5"/>
<polyline fill="none" stroke="black" points="935.62,-1143.5 929.62,-1143.5"/>
<text xml:space="preserve" text-anchor="middle" x="879.25" y="-1132.2" font-family="Arial" font-size="14.00">validate</text>
<text xml:space="preserve" text-anchor="middle" x="879.25" y="-1117.2" font-family="Arial" font-size="14.00">• Test strategy</text>
<text xml:space="preserve" text-anchor="middle" x="879.25" y="-1102.2" font-family="Arial" font-size="14.00">• Validation plan</text>
</g>
<!-- prompts&#45;&gt;prompt_validate -->
<g id="edge23" class="edge">
<title>prompts&#45;&gt;prompt_validate</title>
<path fill="none" stroke="black" d="M660.79,-1123C708.67,-1123 766.97,-1123 811.16,-1123"/>
<polygon fill="black" stroke="black" points="811.13,-1126.5 821.13,-1123 811.13,-1119.5 811.13,-1126.5"/>
</g>
<!-- script_plan -->
<g id="node25" class="node">
<title>script_plan</title>
<polygon fill="#80cbc4" stroke="black" points="628.25,-271 509.5,-271 509.5,-203 634.25,-203 634.25,-265 628.25,-271"/>
<polyline fill="none" stroke="black" points="628.25,-271 628.25,-265"/>
<polyline fill="none" stroke="black" points="634.25,-265 628.25,-265"/>
<text xml:space="preserve" text-anchor="middle" x="571.88" y="-253.7" font-family="Arial" font-size="14.00">spec_ops_plan.sh</text>
<text xml:space="preserve" text-anchor="middle" x="571.88" y="-238.7" font-family="Arial" font-size="14.00">• Baseline checks</text>
<text xml:space="preserve" text-anchor="middle" x="571.88" y="-223.7" font-family="Arial" font-size="14.00">• Policy validation</text>
<text xml:space="preserve" text-anchor="middle" x="571.88" y="-208.7" font-family="Arial" font-size="14.00">• HAL optional</text>
</g>
<!-- scripts&#45;&gt;script_plan -->
<g id="edge24" class="edge">
<title>scripts&#45;&gt;script_plan</title>
<path fill="none" stroke="black" d="M340.47,-333.65C366.36,-318.03 405.39,-295.7 441.25,-280 459.32,-272.09 479.33,-264.78 498.11,-258.52"/>
<polygon fill="black" stroke="black" points="499.15,-261.86 507.57,-255.43 496.97,-255.21 499.15,-261.86"/>
</g>
<!-- script_tasks -->
<g id="node26" class="node">
<title>script_tasks</title>
<polygon fill="#80cbc4" stroke="black" points="631.25,-484.5 506.5,-484.5 506.5,-431.5 637.25,-431.5 637.25,-478.5 631.25,-484.5"/>
<polyline fill="none" stroke="black" points="631.25,-484.5 631.25,-478.5"/>
<polyline fill="none" stroke="black" points="637.25,-478.5 631.25,-478.5"/>
<text xml:space="preserve" text-anchor="middle" x="571.88" y="-467.2" font-family="Arial" font-size="14.00">spec_ops_tasks.sh</text>
<text xml:space="preserve" text-anchor="middle" x="571.88" y="-452.2" font-family="Arial" font-size="14.00">• Task validation</text>
<text xml:space="preserve" text-anchor="middle" x="571.88" y="-437.2" font-family="Arial" font-size="14.00">• SPEC.md sync</text>
</g>
<!-- scripts&#45;&gt;script_tasks -->
<g id="edge25" class="edge">
<title>scripts&#45;&gt;script_tasks</title>
<path fill="none" stroke="black" d="M340.03,-370.42C365.81,-386.13 404.92,-408.43 441.25,-423 458.36,-429.86 477.27,-435.82 495.23,-440.79"/>
<polygon fill="black" stroke="black" points="494.25,-444.15 504.81,-443.36 496.06,-437.39 494.25,-444.15"/>
</g>
<!-- script_impl -->
<g id="node27" class="node">
<title>script_impl</title>
<polygon fill="#80cbc4" stroke="black" points="660.88,-413.5 476.88,-413.5 476.88,-360.5 666.88,-360.5 666.88,-407.5 660.88,-413.5"/>
<polyline fill="none" stroke="black" points="660.88,-413.5 660.88,-407.5"/>
<polyline fill="none" stroke="black" points="666.88,-407.5 660.88,-407.5"/>
<text xml:space="preserve" text-anchor="middle" x="571.88" y="-396.2" font-family="Arial" font-size="14.00">spec_ops_implement.sh</text>
<text xml:space="preserve" text-anchor="middle" x="571.88" y="-381.2" font-family="Arial" font-size="14.00">• Pre&#45;implementation checks</text>
<text xml:space="preserve" text-anchor="middle" x="571.88" y="-366.2" font-family="Arial" font-size="14.00">• Lock file validation</text>
</g>
<!-- scripts&#45;&gt;script_impl -->
<g id="edge26" class="edge">
<title>scripts&#45;&gt;script_impl</title>
<path fill="none" stroke="black" d="M385.47,-362.03C410.27,-365.37 438.4,-369.16 465.11,-372.76"/>
<polygon fill="black" stroke="black" points="464.58,-376.22 474.96,-374.08 465.51,-369.28 464.58,-376.22"/>
</g>
<!-- script_val -->
<g id="node28" class="node">
<title>script_val</title>
<polygon fill="#80cbc4" stroke="black" points="638.75,-342.5 499,-342.5 499,-289.5 644.75,-289.5 644.75,-336.5 638.75,-342.5"/>
<polyline fill="none" stroke="black" points="638.75,-342.5 638.75,-336.5"/>
<polyline fill="none" stroke="black" points="644.75,-336.5 638.75,-336.5"/>
<text xml:space="preserve" text-anchor="middle" x="571.88" y="-325.2" font-family="Arial" font-size="14.00">spec_ops_validate.sh</text>
<text xml:space="preserve" text-anchor="middle" x="571.88" y="-310.2" font-family="Arial" font-size="14.00">• Test harness</text>
<text xml:space="preserve" text-anchor="middle" x="571.88" y="-295.2" font-family="Arial" font-size="14.00">• Evidence validation</text>
</g>
<!-- scripts&#45;&gt;script_val -->
<g id="edge27" class="edge">
<title>scripts&#45;&gt;script_val</title>
<path fill="none" stroke="black" d="M385.47,-341.68C417.27,-337.28 454.52,-332.12 487.26,-327.58"/>
<polygon fill="black" stroke="black" points="487.71,-331.05 497.14,-326.21 486.75,-324.12 487.71,-331.05"/>
</g>
<!-- script_plan&#45;&gt;cmd_evidence -->
<g id="edge29" class="edge">
<title>script_plan&#45;&gt;cmd_evidence</title>
<path fill="none" stroke="blue" stroke-dasharray="1,5" d="M634.75,-255.84C656.39,-262.87 680.71,-271.28 702.5,-280 729.46,-290.79 758.16,-303.71 784.39,-316.11"/>
<polygon fill="blue" stroke="blue" points="782.79,-319.22 793.32,-320.36 785.79,-312.9 782.79,-319.22"/>
<text xml:space="preserve" text-anchor="middle" x="734.75" y="-299.76" font-family="Arial" font-size="10.00">writes</text>
</g>
<!-- memory_db -->
<g id="node29" class="node">
<title>memory_db</title>
<path fill="#cfd8dc" stroke="black" stroke-width="2" d="M404.25,-1150.69C404.25,-1156.41 362.01,-1161.06 310,-1161.06 257.99,-1161.06 215.75,-1156.41 215.75,-1150.69 215.75,-1150.69 215.75,-1057.31 215.75,-1057.31 215.75,-1051.59 257.99,-1046.94 310,-1046.94 362.01,-1046.94 404.25,-1051.59 404.25,-1057.31 404.25,-1057.31 404.25,-1150.69 404.25,-1150.69"/>
<path fill="none" stroke="black" stroke-width="2" d="M404.25,-1150.69C404.25,-1144.96 362.01,-1140.31 310,-1140.31 257.99,-1140.31 215.75,-1144.96 215.75,-1150.69"/>
<text xml:space="preserve" text-anchor="middle" x="310" y="-1128.2" font-family="Arial" font-size="14.00">Local&#45;Memory Database</text>
<text xml:space="preserve" text-anchor="middle" x="310" y="-1113.2" font-family="Arial" font-size="14.00">~/.local/share/local&#45;memory/</text>
<text xml:space="preserve" text-anchor="middle" x="310" y="-1098.2" font-family="Arial" font-size="14.00">• Consensus artifacts</text>
<text xml:space="preserve" text-anchor="middle" x="310" y="-1083.2" font-family="Arial" font-size="14.00">• Agent verdicts</text>
<text xml:space="preserve" text-anchor="middle" x="310" y="-1068.2" font-family="Arial" font-size="14.00">• Telemetry events</text>
</g>
<!-- mcp -->
<g id="node30" class="node">
<title>mcp</title>
<path fill="none" stroke="black" d="M95.25,-1122C95.25,-1122 65.25,-1122 65.25,-1122 59.25,-1122 53.25,-1116 53.25,-1110 53.25,-1110 53.25,-1098 53.25,-1098 53.25,-1092 59.25,-1086 65.25,-1086 65.25,-1086 95.25,-1086 95.25,-1086 101.25,-1086 107.25,-1092 107.25,-1098 107.25,-1098 107.25,-1110 107.25,-1110 107.25,-1116 101.25,-1122 95.25,-1122"/>
<text xml:space="preserve" text-anchor="middle" x="80.25" y="-1098.2" font-family="Arial" font-size="14.00">mcp</text>
</g>
<!-- mcp&#45;&gt;memory_db -->
<g id="edge28" class="edge">
<title>mcp&#45;&gt;memory_db</title>
<path fill="none" stroke="black" stroke-dasharray="1,5" d="M107.38,-1104C131.31,-1104 168.36,-1104 204.2,-1104"/>
<polygon fill="black" stroke="black" points="203.75,-1107.5 213.75,-1104 203.75,-1100.5 203.75,-1107.5"/>
<text xml:space="preserve" text-anchor="middle" x="180.12" y="-1105" font-family="Arial" font-size="10.00">persists</text>
</g>
<!-- consensus -->
<g id="node31" class="node">
<title>consensus</title>
<path fill="none" stroke="black" d="M600.12,-616C600.12,-616 543.62,-616 543.62,-616 537.62,-616 531.62,-610 531.62,-604 531.62,-604 531.62,-592 531.62,-592 531.62,-586 537.62,-580 543.62,-580 543.62,-580 600.12,-580 600.12,-580 606.12,-580 612.12,-586 612.12,-592 612.12,-592 612.12,-604 612.12,-604 612.12,-610 606.12,-616 600.12,-616"/>
<text xml:space="preserve" text-anchor="middle" x="571.88" y="-592.2" font-family="Arial" font-size="14.00">consensus</text>
</g>
<!-- consensus&#45;&gt;consensus_evidence -->
<g id="edge30" class="edge">
<title>consensus&#45;&gt;consensus_evidence</title>
<path fill="none" stroke="blue" stroke-dasharray="1,5" d="M612.48,-590.87C656.68,-582.91 729.63,-569.77 787.93,-559.27"/>
<polygon fill="blue" stroke="blue" points="788.3,-562.76 797.52,-557.54 787.05,-555.87 788.3,-562.76"/>
<text xml:space="preserve" text-anchor="middle" x="734.75" y="-571.5" font-family="Arial" font-size="10.00">writes</text>
</g>
<!-- leg_template -->
<g id="node33" class="node">
<title>leg_template</title>
<polygon fill="#f48fb1" stroke="black" points="138.5,-1492 16,-1492 16,-1456 144.5,-1456 144.5,-1486 138.5,-1492"/>
<polyline fill="none" stroke="black" points="138.5,-1492 138.5,-1486"/>
<polyline fill="none" stroke="black" points="144.5,-1486 138.5,-1486"/>
<text xml:space="preserve" text-anchor="middle" x="80.25" y="-1468.2" font-family="Arial" font-size="14.00">Template (in code)</text>
</g>
<!-- leg_created -->
<g id="node34" class="node">
<title>leg_created</title>
<polygon fill="#81d4fa" stroke="black" points="366.75,-1492 247.25,-1492 247.25,-1456 372.75,-1456 372.75,-1486 366.75,-1492"/>
<polyline fill="none" stroke="black" points="366.75,-1492 366.75,-1486"/>
<polyline fill="none" stroke="black" points="372.75,-1486 366.75,-1486"/>
<text xml:space="preserve" text-anchor="middle" x="310" y="-1468.2" font-family="Arial" font-size="14.00">Created by stages</text>
</g>
<!-- leg_template&#45;&gt;leg_created -->
<!-- leg_telemetry -->
<g id="node35" class="node">
<title>leg_telemetry</title>
<polygon fill="#a5d6a7" stroke="black" points="640.25,-1492 637.25,-1496 616.25,-1496 613.25,-1492 503.5,-1492 503.5,-1456 640.25,-1456 640.25,-1492"/>
<text xml:space="preserve" text-anchor="middle" x="571.88" y="-1468.2" font-family="Arial" font-size="14.00">Telemetry/Evidence</text>
</g>
<!-- leg_created&#45;&gt;leg_telemetry -->
<!-- leg_script -->
<g id="node36" class="node">
<title>leg_script</title>
<polygon fill="#80cbc4" stroke="black" points="914.25,-1492 838.25,-1492 838.25,-1456 920.25,-1456 920.25,-1486 914.25,-1492"/>
<polyline fill="none" stroke="black" points="914.25,-1492 914.25,-1486"/>
<polyline fill="none" stroke="black" points="920.25,-1486 914.25,-1486"/>
<text xml:space="preserve" text-anchor="middle" x="879.25" y="-1468.2" font-family="Arial" font-size="14.00">Shell script</text>
</g>
<!-- leg_telemetry&#45;&gt;leg_script -->
</g>
</svg>
